<svg width="32" height="37" viewBox="0 0 32 37" fill="none" xmlns="http://www.w3.org/2000/svg">
<path d="M30.5496 28.4102L30.3139 28.8339L28.6822 31.7444L25.4731 33.2733L27.9025 35.6312L31.8006 35.8523L32 31.9102L30.5496 28.4102ZM28.2108 34.9865L26.6878 33.697L28.8091 33.8812L31.0935 35.2996L28.2108 34.9865Z" fill="#996A13"/>
<path d="M27.2317 28.6865L24.0589 30.2154L28.1201 25.5181L27.6306 27.4707L27.8663 28.5391C27.8844 28.5207 27.8844 28.5207 27.9025 28.5023C28.4102 27.876 29.8606 23.3996 29.8606 23.3996L28.6278 21.926L28.519 20.7286L29.8969 21.6865V16.8602L30.749 14.5944L29.2623 12.347C28.0295 13.8207 26.1258 14.5944 26.1258 14.5944L26.0351 15.8839L27.5037 15.3865L26.1439 17.9102L28.4827 19.9181L25.745 19.2549L25.0561 22.5707L27.0867 22.9575L24.3853 23.8418L22.3184 26.1812C22.3184 26.1812 25.4731 27.3233 25.5275 27.3418C25.5819 27.3602 20.5598 27.9681 20.5598 27.9681L19.617 30.0312L20.5598 33.0523L27.268 29.6444L27.2317 28.6865ZM20.7592 31.7812L20.1609 30.0865L20.5416 29.1654L20.9949 30.6391L20.7592 31.7812ZM21.3031 31.7812L23.0436 29.6444L23.1887 30.7128L21.3031 31.7812Z" fill="#996A13"/>
<path d="M13.6884 29.1654L14.5768 28.0786L10.4431 26.4944L8.35807 27.1575L9.42776 25.7391L7.65099 23.4918L6.09178 23.7312V22.8102L7.70538 22.3865L6.45439 19.7707L5.14901 19.4575L4.93144 14.5207L5.14901 13.176L7.30652 10.4865L6.41813 9.82334L7.05269 7.99966L8.10425 9.60229L9.42776 8.58913L7.61473 5.86282C7.61473 5.86282 5.33031 5.60492 2.35694 11.1681L4.11558 13.9865L3.87989 15.1839L3.44476 14.0786L2.68329 15.5154L2.66516 13.0654L1.74051 12.0891C1.74051 12.0891 -0.634561 14.3549 0.199433 17.726L0.815864 17.8918L0.743343 15.3312L1.43229 14.2076L1.6136 18.3891L2.61076 19.0891L1.54108 19.3839L1.03343 22.2391L0.761473 18.997L0 18.9233L0.126912 23.6207L2.82833 27.2496L3.04589 26.0891L1.52295 23.4733L1.99433 22.3312L4.62323 26.1996L6.83513 26.126L4.96771 27.2865L4.6051 28.6312L3.69858 27.876L3.48102 28.4102L7.37904 31.6339L7.99547 31.247L5.31218 28.7786L5.63853 27.7286L8.55751 29.9207L8.64816 31.3575L12.8363 29.7733L11.1501 31.4312L12.9269 32.1128L13.1263 33.1075L9.24646 31.9654L8.39433 32.426L12.1836 33.7154L16.5711 33.8444L16.6074 33.1444L14.0691 32.997L13.7065 32.2418L16.6436 32.2049L16.3173 30.9339L14.4861 31.2286L15.7734 30.0312L17.2419 30.4549L17.532 32.2418L18.638 32.2602L17.804 33.7339L18.7467 33.6786L19.4176 32.1128L18.7467 28.8707L13.6884 29.1654ZM18.2935 31.0628L16.4442 29.2944L18.2935 30.0681V31.0628Z" fill="#996A13"/>
<path d="M21.1581 24.2839L19.3088 25.5181L21.3031 25.9049L21.1581 24.2839Z" fill="#996A13"/>
<path d="M22.6629 13.4707L20.5779 13.1944L21.7382 15.1286L22.6629 13.4707Z" fill="#996A13"/>
<path d="M21.5207 12.6233L20.5779 11.3154H19.9796L20.3059 12.4944L21.5207 12.6233Z" fill="#996A13"/>
<path d="M6.52691 18.0944L7.19773 19.4207L7.99547 18.7944V16.7497L6.76261 16.6023L6.52691 18.0944Z" fill="#996A13"/>
<path d="M23.5331 12.1628L23.1705 11.3154C23.1705 11.3154 21.6839 8.82861 18.4567 7.79703L17.9671 8.23913C17.9671 8.23913 21.8108 9.91545 22.9892 12.347L23.5331 12.1628Z" fill="#996A13"/>
<path d="M2.55637 31.247L1.59547 30.9339L1.43229 33.7891H1.81303L1.83116 35.8707L3.06402 36.1839L7.72351 34.2681V33.6417L4.91331 33.4575L2.55637 31.247ZM3.02776 35.097L2.82833 35.5391L2.46572 35.3181L2.32068 33.4575L3.28159 33.5496L3.37224 34.176L4.73201 34.3602L3.02776 35.097Z" fill="#996A13"/>
<path d="M12.5099 22.3865L10.7694 21.447L11.966 23.326L12.5099 22.3865Z" fill="#996A13"/>
<path d="M14.3048 23.9523L13.0176 22.6996L12.5099 23.8418L13.4527 24.7075L14.3048 23.9523Z" fill="#996A13"/>
<path d="M20.7592 22.3865L19.8708 22.0918L15.1932 23.7128L14.3048 24.7996L19.4357 23.7128L20.7592 22.3865Z" fill="#996A13"/>
<path d="M17.532 20.2681L18.928 19.6786L18.7467 18.9602L16.6255 18.4997L15.5377 22.9575L19.7439 21.5391C19.7439 21.5391 19.7076 20.4707 19.7439 20.4154C19.7802 20.3786 17.532 20.2681 17.532 20.2681Z" fill="#996A13"/>
<path d="M21.1037 20.4891L20.1609 20.2497L20.451 21.447H21.3756L21.1037 20.4891Z" fill="#996A13"/>
<path d="M20.5054 16.4918L19.4357 18.8681V19.6418L21.702 19.4207L20.5054 16.4918Z" fill="#996A13"/>
<path d="M16.4442 12.8812H15.5377L15.2295 13.4707L16.4442 13.5812L16.8974 14.7418L15.9184 14.0418L13.7246 13.6918L13.0538 15.2391L16.6436 17.8733L19.0187 18.3154L20.1609 15.847L19.055 14.0418L16.4442 12.8812Z" fill="#996A13"/>
<path d="M10.7694 12.6233L9.6272 15.1286L10.3161 16.197L10.5881 15.6075L12.4193 15.3681L12.8907 13.6918L11.8935 13.4339L12.4011 12.8812L15.5377 12.347L12.383 11.9786L10.7694 12.6233Z" fill="#996A13"/>
<path d="M11.549 21.2628L12.945 21.797L14.3048 20.9312L13.7428 22.3865L14.7399 23.197L16.136 18.3154L12.9269 15.7733L10.7694 16.4918L11.549 17.3575L9.71785 17.247L9.89915 19.7339L11.549 21.2628Z" fill="#996A13"/>
<path d="M4.4238 6.74703L5.0221 4.38913H3.7711L1.10595 6.1944L0.217564 10.2286L1.06969 10.6707L4.4238 6.74703ZM1.92181 6.39703L2.9915 5.86282L2.91898 7.13387L1.06969 9.04966L1.92181 6.39703Z" fill="#996A13"/>
<path d="M10.7331 8.16545C13.2714 7.39176 16.4623 7.76019 16.4623 7.76019L17.4595 7.37334C16.6074 6.61808 11.3677 7.11545 11.3677 7.11545C14.0873 5.73387 17.6045 6.47071 17.6045 6.47071L20.1065 4.99703L18.9824 6.96808C21.847 7.90755 23.9683 11.7023 23.9683 11.7023L26.4159 9.45492L25.5275 8.27597L25.1105 5.88124L21.7564 5.47598L23.515 4.48124L20.3966 4.29703C13.6521 -0.418757 9.46402 5.97334 9.42776 6.83913C9.3915 7.6865 10.7331 8.16545 10.7331 8.16545ZM15.9184 3.68914C16.8793 3.72598 17.0425 4.7944 17.0425 4.7944C16.0453 3.70756 14.7943 4.7944 14.7943 4.7944C14.7943 4.7944 14.9575 3.65229 15.9184 3.68914ZM16.0453 4.86808L17.1694 5.54966L16.698 5.99177L16.136 5.51282L15.03 5.99177L14.7762 5.54966L16.0453 4.86808ZM10.57 5.69703L11.0414 6.56282L10.4793 7.22597L10.0442 6.91282L10.57 5.69703Z" fill="#996A13"/>
<path d="M28.0113 5.5865L28.5371 8.93913C30.1326 7.29966 30.3139 3.67071 30.3139 3.67071C28.8272 0.77861 24.6935 0.815452 24.6935 0.815452L26.8147 6.6365L28.0113 5.5865ZM29.2986 4.03913L29.7518 4.24177L29.7337 4.31545L28.9904 6.78387L28.664 5.88124L29.2986 4.03913ZM28.3921 3.79966C28.2108 4.72071 27.0686 5.25492 27.0686 5.25492L26.0533 2.3444C26.0533 2.3444 28.5915 2.87861 28.3921 3.79966Z" fill="#996A13"/>
<path d="M24.9654 14.2075C28.519 13.4154 28.1926 11.4444 28.1926 11.4444L26.9779 10.0997L25.0017 12.1444L25.2555 13.397L24.0408 13.1023C24.2221 14.2075 24.9654 14.2075 24.9654 14.2075ZM26.4159 12.5497L27.2317 11.776L26.6153 13.0654L25.745 13.1944L26.4159 12.5497Z" fill="#996A13"/>
</svg>
