<svg width="190" height="192" viewBox="0 0 190 192" fill="none" xmlns="http://www.w3.org/2000/svg">
<path d="M151.901 22.4C151.901 22.4 140.601 22.7 152.401 24.2C164.201 25.7 166.801 34.5 166.801 34.5L176.901 34.9C175.501 19.7 151.901 22.4 151.901 22.4Z" fill="#D8DAE5"/>
<path d="M176.801 38.6H170.901L174.501 47.9L176.801 38.6Z" fill="#D8DAE5"/>
<path d="M140.101 22.1C137.501 19.3 134.501 16.8 131.201 14.6C130.701 14.3 130.201 14 129.701 13.7V17.7C130.701 18.5 131.601 19.4 132.501 20.4C132.501 20.4 141.801 28.4 144.901 44.7C147.601 58.9 148.001 80.8 149.001 86.1C151.401 85.6 157.201 85 159.401 84.3C159.001 83.3 158.701 82.3 158.301 81.2C155.101 71 152.401 47.9 152.401 47.9L150.701 40.5C150.601 40.3 150.601 40 150.501 39.8L150.401 39.5C150.301 39.2 150.201 38.8 150.101 38.5C149.101 35.7 147.801 32.9 146.301 30.4C144.501 27.4 142.501 24.6 140.101 22.1Z" fill="#D8DAE5"/>
<path d="M126.401 15.3L128.401 12.9C125.501 11.3 122.501 9.9 119.401 8.8C114.501 7.1 109.401 6 104.301 5.5C104.301 5.5 101.501 5.6 97.3009 6.6V11.4C107.001 9 117.901 9.9 126.401 15.3Z" fill="#D8DAE5"/>
<path d="M145.301 87.5L143.701 58.6L114.101 66V75L112.301 68.3L110.001 72.5L109.601 67.4L72.8009 77.7C72.8009 77.7 66.0009 48.8 73.7009 29.5C77.1009 21.1 85.5009 14.8 95.4009 11.9L94.0009 7.4C83.4009 10.7 67.9009 19.5 64.5009 43.2C64.5009 43.2 61.5009 61.6 70.1009 85.3C70.1009 85.4 112.001 92.6 145.301 87.5Z" fill="#D8DAE5"/>
<path d="M37.3009 73.6L33.2009 76L38.7009 83.9H40.5009V48.6L38.0009 43.3C29.3009 40 16.9009 46.8 16.9009 46.8V52.4L30.2009 71.7L37.3009 73.6Z" fill="#D8DAE5"/>
<path d="M22.6009 93.7L28.7009 96.2V90.3L8.00088 70.2C-1.99912 71.5 0.400885 84.4 0.400885 84.4L17.1009 91.4C18.0009 87.9 19.0009 83.9 19.0009 83.9L22.6009 93.7Z" fill="#D8DAE5"/>
<path d="M137.101 31.1L107.101 55.5V55.9L139.901 37.7L137.101 31.1Z" fill="#D8DAE5"/>
<path d="M113.201 63.9L143.001 55.6L140.601 42L118.801 52.5L137.501 47.9L112.501 59.7L113.201 63.9Z" fill="#D8DAE5"/>
<path d="M109.701 64.9L109.601 61L88.9009 70.7L109.701 64.9Z" fill="#D8DAE5"/>
<path d="M131.501 7.4L130.801 10.9L135.301 14.3H139.401L136.901 8.9L128.401 1.6L123.801 0L117.401 4.4L129.101 10.4L131.501 7.4Z" fill="#D8DAE5"/>
<path d="M187.401 33.9C178.801 11.6 156.701 12.7 152.101 11.8C147.501 10.9 142.801 1.8 141.701 9.7C140.601 17.6 146.301 17.4 146.301 17.4C182.001 20.1 179.301 35.4 179.301 35.4L183.601 37.5L179.401 38.2C179.301 48.9 172.901 56.2 167.401 60.9C161.901 65.6 162.201 68.3 162.201 68.3C162.801 84.8 169.001 83.6 169.001 83.6C168.401 79.2 172.801 74.1 174.301 72.5C175.201 72.1 175.901 71.6 176.701 71.1L174.101 66.3L174.701 61.9L173.501 60.5L177.301 61.3L176.901 65.8L181.401 67.2C184.101 64.4 185.301 61.9 185.301 61.9C189.001 55.9 192.201 46.3 187.401 33.9Z" fill="#D8DAE5"/>
<path d="M177.901 113.4L178.101 106.8L166.801 107.7L173.501 117.7L177.901 113.4Z" fill="#D8DAE5"/>
<path d="M178.301 99.7L173.101 90.3L165.201 96L163.501 102.7L164.201 103.7L178.101 105.4L178.301 99.7Z" fill="#D8DAE5"/>
<path d="M45.5009 108.7L75.7009 94.4L78.4009 94.6L80.6009 117.2C80.6009 117.2 59.8009 117.6 46.1009 112.3L46.6009 117.5C46.6009 117.5 58.4009 122.2 88.0009 123L87.8009 118L84.2009 117.3L80.9009 93.4C80.9009 93.4 138.301 98.5 151.701 93.9L143.401 100.4C143.401 100.4 145.401 101.2 147.501 101.9C153.101 97.4 154.701 94.7 154.701 94.7L157.701 103.1L161.801 103.6L162.101 103L163.201 92.6L159.701 88.2C112.701 95.6 71.8009 89.1 71.8009 89.1L43.2009 101.1L44.9009 102.6L45.5009 108.7Z" fill="#D8DAE5"/>
<path d="M158.501 108.2C160.901 117.3 171.501 132 171.501 132L175.101 131.4L161.601 107.9L158.501 108.2Z" fill="#D8DAE5"/>
<path d="M126.801 109.2L128.401 113.8L129.401 115.9C129.701 114.1 130.001 113.1 130.001 113.1C136.301 109.7 141.101 106.6 144.601 104C141.001 104.2 137.701 104.4 137.701 104.4C137.701 104.4 133.101 108.2 126.801 109.2Z" fill="#D8DAE5"/>
<path d="M181.901 157V150.9L178.401 158.6L181.901 157Z" fill="#D8DAE5"/>
<path d="M180.901 141.4L177.301 135.1L173.301 134.6C173.301 134.6 176.901 142.3 177.701 147.1C178.401 151.9 174.901 153.5 174.901 153.5C174.601 139.8 169.301 133.8 169.301 133.8C158.901 119.9 154.801 110.5 154.801 110.5L155.501 118.5L161.101 126.5C161.101 126.5 161.501 129.9 161.501 132.5C161.501 135.2 153.201 140.4 153.201 140.4C153.201 140.4 171.701 134.5 170.601 144.9C169.501 155.3 162.401 155.8 162.401 155.8L165.301 158.6L169.001 160L164.201 160.8L161.701 159L140.301 162.1L143.901 165.8L144.701 168.5H141.401C127.401 149.4 127.701 129.1 128.901 119.3L126.701 117.4L121.501 110.4C121.501 110.4 120.601 115.9 90.8009 117.9L90.9009 124.2C90.9009 124.2 112.001 121.9 122.601 116.4C122.601 116.4 124.801 153.1 137.201 170.7C137.201 170.7 129.801 171.5 128.301 174.3L133.101 176.8L147.501 172.1L175.601 158.7L180.601 149.5V141.4H180.901Z" fill="#D8DAE5"/>
<path d="M28.2009 111.9L31.9009 109.3C31.9009 109.3 33.9009 117.1 44.0009 117.8L43.5009 111.8L42.2009 111.6L41.8009 101.5L31.7009 105.7L28.2009 111.9Z" fill="#D8DAE5"/>
<path d="M32.2009 119.2L33.5009 117L27.7009 112.6L27.2009 113.5L26.9009 139.1L26.6009 141.9L28.2009 140.6L32.7009 150.2L33.7009 149.3L31.9009 137.4L28.2009 137.6L32.1009 132.5L32.2009 119.2Z" fill="#D8DAE5"/>
<path d="M28.3009 154.2L25.6009 148.5L25.3009 150.8L21.0009 156L18.6009 166.4L20.5009 168C22.1009 164.1 25.5009 156.6 28.3009 154.2Z" fill="#D8DAE5"/>
<path d="M119.601 178.1L107.601 169.2L104.401 174.3L103.801 166.8L101.101 169.2L96.3009 168.9L101.201 165.5L92.6009 163L76.5009 171.2V178.4L77.6009 181.7L73.3009 177.2L72.9009 173.4L64.2009 177.9L66.9009 183.6L59.8009 179.1L51.7009 185.7L61.2009 190L77.4009 192L76.9009 191.1L80.5009 185.6L81.7009 179.6L82.8009 185.4L83.8009 185.9L84.4009 191.6L126.801 178.6L124.601 175L119.601 178.1ZM109.001 181.7L102.301 180.6L109.401 178.9L110.301 175.1L114.501 177.3L109.001 181.7Z" fill="#D8DAE5"/>
<path d="M130.301 163C130.301 163 123.101 149.6 121.801 134.7L119.301 125.4L111.301 123.9L92.3009 127L96.6009 134.9L97.2009 138.5L101.701 140.2H93.7009L93.1009 135L87.9009 126.4C87.9009 126.4 64.7009 126.6 46.6009 122.3L46.4009 128.6L42.1009 120.6L36.6009 118.7L34.4009 121.2V135.9L41.7009 140L34.4009 139.2C34.4009 139.2 33.6009 150.6 40.1009 153.5C46.6009 156.4 55.3009 157.8 55.3009 157.8C55.3009 157.8 41.2009 161.8 30.5009 154.9C30.5009 154.9 27.2009 157.1 23.7009 170.1L29.3009 174L31.9009 171.3L33.1009 164.6L34.4009 173.8L31.6009 176.6L45.8009 183.1L57.1009 176.4L56.1009 172.8L51.6009 169.8L54.9009 162.9L55.7009 168.6L59.9009 170.9L61.3009 176.3L71.7009 169.5L72.5009 160.4L75.9009 168L92.0009 158.6L102.201 163.4L103.001 154.5L98.9009 146.7L106.201 154.2L105.701 164.6L118.201 160.4L116.201 164.8L109.401 165.8L117.701 172.8L117.901 167.1L120.601 164.8L120.701 173L124.601 171L124.701 165L122.501 164.3L123.201 152.9L125.201 162.5L126.901 163.1L128.201 167.2L130.301 163ZM64.1009 163.6L60.7009 161.9L58.3009 164L57.8009 159.6L64.1009 157.4V163.6ZM69.0009 146.7V149.8L66.3009 151.9L64.9009 149.3L59.3009 149.5L59.1009 154.7L56.0009 149.4L59.7009 144.9L55.0009 139.3C55.0009 139.3 62.5009 142.9 62.5009 143.1C62.5009 143.3 67.3009 138.7 67.3009 138.7L69.2009 140.3L64.8009 145.7L69.0009 146.7Z" fill="#D8DAE5"/>
</svg>
