<svg width="702" height="192" viewBox="0 0 702 192" fill="none" xmlns="http://www.w3.org/2000/svg">
<path d="M342.751 0.0123298L343.972 62.2409V62.2656L367.731 75.7791L367.583 121.621L326.032 146.676L284.209 121.621L284.333 75.7791L309.091 61.5751L309.707 0L258.144 11.4174L262.718 131.337L325.896 192L389.58 131.337L394.216 11.4174L342.751 0.0123298Z" fill="white"/>
<path d="M52.7291 86.1608L29.1915 87.4308L30.2889 132.694L27.8106 132.743L5.76483 133.211L3.3112 133.261L0.610966 21.9717L0.549316 19.5551L50.781 17.2741L53.284 17.1631L54.0484 42.8955L51.6318 43.0064L28.4147 44.1284L28.7723 62.4875L54.5416 61.2422L54.6033 63.7698L55.0595 83.6455L55.1211 86.0375L52.7291 86.1608Z" fill="white"/>
<path d="M98.5344 18.729L98.4974 21.3306L97.1042 130.154L97.0795 132.533L94.6999 132.595L73.7392 133.051L71.2485 133.113L71.2115 130.622L69.9786 22.2553L69.9416 19.851L72.3459 19.7647L95.9452 18.8276L98.5344 18.729Z" fill="white"/>
<path d="M171.12 133.026L168.568 133.051L120.284 133.68L117.794 133.705V131.214L117.473 23.1677V20.8004L119.828 20.6894L167.791 18.3591L170.442 18.2358L169.912 40.7624L169.862 43.0434L167.569 43.1667L144.771 44.2887V61.2299L169.825 59.8243L169.764 62.4999L169.295 81.4385L169.234 83.7195L166.953 83.8428L144.611 84.9648V108.613L167.507 107.639L169.961 107.528L170.997 130.474L171.12 133.026Z" fill="white"/>
<path d="M238.046 86.1608L214.509 87.4308L215.544 130.215L215.594 132.694L213.128 132.743L191.082 133.211L188.616 133.261L188.567 130.807L185.916 21.9717L185.867 19.5551L238.589 17.1631L238.675 19.6661L239.366 42.8955L236.949 43.0064L213.72 44.1284L214.09 62.4875L239.859 61.2422L239.908 63.7698L240.377 83.6455L240.438 86.0375L238.046 86.1608Z" fill="white"/>
<path d="M470.439 130.474L470.562 133.026L468.01 133.051L419.726 133.68L417.236 133.705V131.214L416.915 23.1677V20.8004L419.27 20.6894L467.233 18.3591L469.884 18.2358L469.354 40.7624L469.305 43.0434L467.011 43.1667L444.213 44.2887V61.2299L469.268 59.8243L469.206 62.4999L468.737 81.4385L468.676 83.7195L466.395 83.8428L444.053 84.9648V108.613L466.937 107.639L469.403 107.528L470.439 130.474Z" fill="white"/>
<path d="M558.634 122.595L535.368 78.8985C545.54 72.6103 550.694 63.1164 550.694 50.6386C550.694 40.4048 547.525 31.9219 541.545 26.0899C535.627 20.3195 527.094 17.2741 516.861 17.2741C505.702 17.2741 492.793 19.4441 489.106 20.1099L487.096 20.4675L487.072 22.5143L485.962 132.866L488.255 133.051L508.131 134.605L510.745 134.802L510.794 132.188L511.534 87.3321L512.94 87.0855L534.024 132.866L535.01 134.987L537.18 134.124L559.916 125.024L558.634 122.595ZM511.916 65.7549L512.311 40.3802H512.94C514.802 40.3802 516.331 40.5898 517.637 41.0213C523.05 42.7228 524.172 48.3699 524.172 52.8086C524.172 61.7108 518.007 64.8302 511.916 65.7549Z" fill="white"/>
<path d="M634.228 95.6548C634.956 107.134 632.366 116.381 626.51 123.138C620.764 129.747 611.936 133.606 600.95 134.309C591.567 134.913 580.828 131.966 570.717 126.011L568.979 125L569.632 123.089L575.921 104.791L576.895 101.992L579.472 103.447C586.648 107.516 594.724 109.698 601.049 109.292C605.746 108.996 608.471 105.765 608.163 100.883C607.682 93.2998 600.864 88.9843 592.985 83.9784C582.468 77.2957 570.545 69.7375 569.423 52.1921C568.202 33.1302 580.47 18.9756 599.261 17.7796C606.486 17.3234 615.857 18.6304 623.736 21.2196L625.733 21.8731L625.412 23.9568L621.96 45.7067L619.198 44.7696C612.207 42.4146 605.204 41.1816 600.482 41.4775C596.24 41.7488 594.945 45.2751 595.13 48.2219C595.476 53.6594 601.727 57.6049 608.952 62.204C619.716 69.0223 633.094 77.5299 634.253 95.6671L634.228 95.6548Z" fill="white"/>
<path d="M701.451 133.026L698.911 133.051L650.627 133.68L648.136 133.705L648.124 131.214L647.816 23.1677L647.803 20.8004L650.158 20.6894L698.134 18.3591L700.785 18.2358L700.254 40.7624L700.205 43.0434L697.912 43.1667L675.102 44.2887V61.2299L700.168 59.8243L700.094 62.4999L699.638 81.4385L699.576 83.7195L697.295 83.8428L674.954 84.9648V108.613L697.838 107.639L700.292 107.528L701.34 130.474L701.451 133.026Z" fill="white"/>
<path d="M353.306 116.159V84.8415L326.18 69.1826L299.054 84.8415V116.159L326.18 131.818L353.306 116.159Z" fill="white"/>
</svg>
