<svg width="469" height="473" viewBox="0 0 469 473" fill="none" xmlns="http://www.w3.org/2000/svg">
<g opacity="0.2" filter="url(#filter0_d_875_4274)">
<path d="M310.998 360.868H314.347L308.872 347.326H302.368L307.942 358.573L310.998 360.868Z" fill="url(#paint0_radial_875_4274)"/>
<path d="M150.782 385.881L152.447 402.768C177.351 414.388 205.094 420.932 234.389 420.932C239.106 420.932 243.771 420.704 248.402 420.371L249.309 405.867C244.384 406.272 239.416 406.516 234.389 406.516C204.194 406.516 175.766 399.03 150.782 385.881Z" fill="url(#paint1_radial_875_4274)"/>
<path d="M159.422 347.326H155.256L157.662 360.868H158.925L159.422 347.326Z" fill="url(#paint2_radial_875_4274)"/>
<path d="M127.421 388.755C131.663 391.561 136.001 394.231 140.468 396.703L144.14 382.202C138.362 378.843 132.771 375.201 127.421 371.238V388.755Z" fill="url(#paint3_radial_875_4274)"/>
<path d="M67.5185 159.118L67.5185 231.784H81.0601L81.0601 135.021L67.5185 120.787V126.823C60.4873 138.565 54.679 151.117 50.2223 164.293L56.8249 197.399C59.0038 184.101 62.6035 171.275 67.5185 159.118Z" fill="url(#paint4_radial_875_4274)"/>
<path d="M40.0891 231.784H54.5439C54.4945 230.04 54.4153 228.3 54.4153 226.543C54.4153 219.218 54.9065 212.012 55.7636 204.915L44.7668 183.732C41.6648 197.508 40.0002 211.827 40.0002 226.539C39.9969 228.296 40.043 230.04 40.0891 231.784Z" fill="url(#paint5_radial_875_4274)"/>
<path d="M315.309 347.326C318.378 351.615 322.288 357.242 324.79 360.868H354.124C340.184 373.305 324.295 383.606 306.976 391.257L313.602 404.047C332.929 395.398 350.568 383.679 365.942 369.521L362.356 347.329H315.309V347.326Z" fill="url(#paint6_radial_875_4274)"/>
<path d="M63.164 318.545C64.565 321.146 66.0022 323.727 67.5186 326.256V331.546L85.3785 327.34C83.9083 325.178 82.4348 323.018 81.0602 320.787V318.914L63.164 318.545Z" fill="url(#paint7_radial_875_4274)"/>
<path d="M282.217 414.949C285.579 414.095 288.912 413.165 292.202 412.137L295.824 395.694C292.732 396.818 289.604 397.867 286.436 398.826L282.217 414.949Z" fill="url(#paint8_radial_875_4274)"/>
<path d="M386.845 61.4388L400.386 45.392L400.386 28.0001L382.975 28.0001L382.533 41.5417H386.845V61.4388Z" fill="url(#paint9_radial_875_4274)"/>
<path d="M361.97 79.948C354.777 73.6816 347.12 67.9359 339.053 62.7705L332.863 75.999C341.944 81.9523 350.446 88.6967 358.281 96.1466L361.97 79.948Z" fill="url(#paint10_radial_875_4274)"/>
<path d="M254.586 419.887C259.927 419.333 265.181 418.512 270.383 417.533L277.391 401.311C269.677 403.207 261.763 404.588 253.693 405.452L254.586 419.887Z" fill="url(#paint11_radial_875_4274)"/>
<path d="M147.203 69.093L155.213 79.5492L155.869 70.4841C155.869 70.4841 167.116 101.391 172.469 114.168C177.82 126.945 186.229 142.781 186.229 142.781C186.229 142.781 196.276 118.209 193.217 101.826C193.217 101.826 189.176 93.7435 187.32 98.3321C185.464 102.921 185.134 109.909 185.134 109.909L183.387 87.4111L163.572 61.0531C180.087 53.9757 197.868 49.2948 216.493 47.4554L217.353 100.949L221.698 93.7402C223.64 113.835 218.009 116.456 218.009 116.456C213.642 156.207 219.539 187.879 219.539 187.879C219.539 187.879 216.48 184.385 213.203 163.634C209.927 142.883 200.318 127.377 200.318 127.377L188.523 147.689C188.523 147.696 188.523 147.699 188.526 147.702C188.441 147.369 188.411 147.58 188.523 148.998C191.473 185.7 206.432 204.694 206.432 204.694C214.733 205.568 220.848 207.315 220.848 207.315C228.492 218.018 257.105 216.924 257.105 216.924C257.105 216.924 236.792 227.189 220.848 215.242C204.903 203.296 197.697 217.359 204.903 215.612C212.112 213.865 211.018 218.888 211.018 218.888L211.018 270.223C202.5 281.8 220.409 292.283 220.409 292.283C199.223 294.468 202.061 273.279 202.061 273.279C188.081 280.488 173.449 278.738 173.449 278.738C173.449 278.738 175.852 290.532 170.828 294.683C166.533 298.229 156.835 292.375 154.105 290.595C155.513 291.426 158.658 292.767 161.436 290.315C165.148 287.038 158.816 279.394 158.816 279.394C105.958 277.647 104.649 294.683 104.649 294.683L102.246 286.6L81.0602 284.141V249.466L67.5185 247.804L67.5185 293.954C61.4597 278.975 57.3755 262.994 55.5394 246.334L40.8473 244.531C42.9537 267.411 49.0092 289.141 58.3545 309.032L81.0602 312.101V302.357L98.9695 304.288L108.579 297.953L176.072 297.953L113.167 326.127L111.42 335.957L105.305 322.633L103.558 330.716L95.0402 331.589L93.125 337.974C91.3383 335.713 89.6341 333.382 87.9529 331.039L67.5218 339.807L67.5218 360.855H79.0856L81.0634 346.423V345.948C81.0832 345.971 81.0997 345.994 81.1195 346.017L81.5546 342.836L85.4872 357.908L89.5814 341.363L98.0004 364.886C105.5 372.28 113.566 379.09 122.179 385.199L122.179 367.171C119.621 365.127 117.096 363.037 114.654 360.858H150.585L152.579 347.316H115.649L145.93 328.095L150.298 312.589L153.357 324.818L186.288 313.241L192.014 302.759C194.199 316.3 218.88 305.818 218.88 305.818C202.727 324.09 210.217 340.288 215.043 347.316H164.37L173.096 360.858H211.377L218.497 340.054L231.792 360.858L300.314 360.858L292.587 347.316H255.397C271.83 331.009 255.137 308.656 255.137 308.656L286.017 311.277L278.726 297.297L292.485 304.506C313.889 328.734 330.707 329.624 330.707 329.624L339.225 322.415L340.316 331.372L361.433 341.65L361.176 340.054L366.39 344.059L369.37 345.51C369.222 345.678 369.077 345.846 368.935 346.014L388.252 360.858H400.386V327.722C418.395 298.253 428.782 263.614 428.782 226.539C428.782 193.75 420.646 162.869 406.307 135.776L386.845 159.408V276.032L387.883 273.882L400.386 262.958V156.903C409.382 178.323 414.366 201.849 414.366 226.539C414.366 251.229 409.385 274.756 400.386 296.176V272.712L397.057 274.044L386.845 293.974V322.148C384.597 325.728 382.23 329.226 379.741 332.631L338.137 309.539L330.71 320.896L328.745 310.631L297.294 297.089L321.101 297.745L323.287 286.606L332.461 297.962C332.461 297.962 357.579 300.366 369.591 300.583C372.097 300.629 374.124 299.967 375.798 298.928L382.289 285.476C370.748 288.09 367.188 279.18 367.188 279.18L364.568 286.389C350.152 288.574 346.876 278.744 346.876 278.744L311.931 278.962L314.551 286.606L299.262 279.618L279.824 279.836L270.867 294.251C273.705 270.444 261.476 233.748 261.476 233.748L247.278 250.128C248.152 230.472 250.337 240.519 264.314 217.365C278.294 194.215 273.27 173.246 273.27 173.246L281.353 183.729C280.041 175.211 288.997 149.875 288.997 149.875C312.761 135.094 326.095 87.1639 329.431 73.7179C329.573 73.8069 329.708 73.9058 329.85 73.9948L327.16 55.7195C322.321 53.0857 317.343 50.6727 312.267 48.4509L307.695 62.1673C309.956 63.176 312.194 64.2275 314.406 65.3285C299.365 119.821 265.191 153.369 265.191 153.369L267.04 119.297L255.799 130.874C277.44 92.7447 262.484 60.0312 255.104 47.7884C273.056 49.8453 290.191 54.5625 306.135 61.5047L304.893 45.4084C301.349 44.0272 297.769 42.7185 294.127 41.5416L304.593 41.5416L303.548 28L239.663 28L239.637 28.1648L227.025 49.4596L225.861 28L224.53 28L222.11 41.5977L215.237 28L191.915 28L201.142 28.4912L184.762 44.2183L174.105 28L67.5252 28L67.5251 115.038L86.5685 123.978C102.279 101.368 123.014 82.516 147.203 69.093ZM386.845 347.069V347.326H386.644C386.71 347.241 386.775 347.155 386.845 347.069ZM247.931 320.896C247.931 329.822 240.695 337.058 231.769 337.058C222.842 337.058 215.606 329.822 215.606 320.896C215.606 311.969 222.842 304.733 231.769 304.733C240.695 304.733 247.931 311.969 247.931 320.896ZM238.796 46.6775C252.285 82.8753 246.622 108.597 246.622 108.597C237.013 152.064 242.034 137.21 243.128 142.669C244.219 148.128 237.669 149.878 237.669 149.878L236.805 46.628C237.468 46.6346 238.131 46.661 238.796 46.6775ZM81.0602 41.5416L112.297 41.5416L106.449 31.1118L122.176 31.1118L112.854 41.5416L174.655 41.5416C153.621 48.3289 134.159 58.6071 116.945 71.6873L109.891 87.955L105.862 80.7689C96.8071 88.7626 88.4969 97.5838 81.0602 107.124L81.0602 41.5416Z" fill="url(#paint12_radial_875_4274)"/>
<path d="M400.386 65.6219V61.4355L386.845 64.8934V106.013C382.635 100.696 378.142 95.6159 373.412 90.7702L363.16 100.943C372.057 110.064 380.031 120.092 386.845 130.934V151.767L400.386 113.278V78.201L390.83 89.5934L392.795 73.2136L400.386 65.6219Z" fill="url(#paint13_radial_875_4274)"/>
<path d="M329.052 41.5417L323.086 28.0001L316.321 28.0001L318.916 28.4912L314.568 41.5417L329.052 41.5417Z" fill="url(#paint14_radial_875_4274)"/>
<path d="M373.448 41.5417L370.551 28.0001L333.509 28.0001L336.281 41.5417L373.448 41.5417Z" fill="url(#paint15_radial_875_4274)"/>
<path d="M228.657 310.248C223.679 310.248 219.648 314.283 219.648 319.257C219.648 324.235 223.682 328.266 228.657 328.266C233.631 328.266 237.666 324.231 237.666 319.257C237.666 314.283 233.631 310.248 228.657 310.248Z" fill="url(#paint16_radial_875_4274)"/>
</g>
<defs>
<filter id="filter0_d_875_4274" x="0" y="0" width="468.781" height="472.932" filterUnits="userSpaceOnUse" color-interpolation-filters="sRGB">
<feFlood flood-opacity="0" result="BackgroundImageFix"/>
<feColorMatrix in="SourceAlpha" type="matrix" values="0 0 0 0 0 0 0 0 0 0 0 0 0 0 0 0 0 0 127 0" result="hardAlpha"/>
<feOffset dy="12"/>
<feGaussianBlur stdDeviation="20"/>
<feColorMatrix type="matrix" values="0 0 0 0 0.273073 0 0 0 0 0.289904 0 0 0 0 0.6125 0 0 0 0.15 0"/>
<feBlend mode="normal" in2="BackgroundImageFix" result="effect1_dropShadow_875_4274"/>
<feBlend mode="normal" in="SourceGraphic" in2="effect1_dropShadow_875_4274" result="shape"/>
</filter>
<radialGradient id="paint0_radial_875_4274" cx="0" cy="0" r="1" gradientUnits="userSpaceOnUse" gradientTransform="translate(43.1386 -20.9483) rotate(58.5069) scale(487.043 457.66)">
<stop offset="0.0104167" stop-color="#A4D7FC"/>
<stop offset="0.630208" stop-color="#A8B4FE"/>
<stop offset="1" stop-color="#CDB9FD"/>
</radialGradient>
<radialGradient id="paint1_radial_875_4274" cx="0" cy="0" r="1" gradientUnits="userSpaceOnUse" gradientTransform="translate(43.1386 -20.9483) rotate(58.5069) scale(487.043 457.66)">
<stop offset="0.0104167" stop-color="#A4D7FC"/>
<stop offset="0.630208" stop-color="#A8B4FE"/>
<stop offset="1" stop-color="#CDB9FD"/>
</radialGradient>
<radialGradient id="paint2_radial_875_4274" cx="0" cy="0" r="1" gradientUnits="userSpaceOnUse" gradientTransform="translate(43.1386 -20.9483) rotate(58.5069) scale(487.043 457.66)">
<stop offset="0.0104167" stop-color="#A4D7FC"/>
<stop offset="0.630208" stop-color="#A8B4FE"/>
<stop offset="1" stop-color="#CDB9FD"/>
</radialGradient>
<radialGradient id="paint3_radial_875_4274" cx="0" cy="0" r="1" gradientUnits="userSpaceOnUse" gradientTransform="translate(43.1386 -20.9483) rotate(58.5069) scale(487.043 457.66)">
<stop offset="0.0104167" stop-color="#A4D7FC"/>
<stop offset="0.630208" stop-color="#A8B4FE"/>
<stop offset="1" stop-color="#CDB9FD"/>
</radialGradient>
<radialGradient id="paint4_radial_875_4274" cx="0" cy="0" r="1" gradientUnits="userSpaceOnUse" gradientTransform="translate(43.1386 -20.9483) rotate(58.5069) scale(487.043 457.66)">
<stop offset="0.0104167" stop-color="#A4D7FC"/>
<stop offset="0.630208" stop-color="#A8B4FE"/>
<stop offset="1" stop-color="#CDB9FD"/>
</radialGradient>
<radialGradient id="paint5_radial_875_4274" cx="0" cy="0" r="1" gradientUnits="userSpaceOnUse" gradientTransform="translate(43.1386 -20.9483) rotate(58.5069) scale(487.043 457.66)">
<stop offset="0.0104167" stop-color="#A4D7FC"/>
<stop offset="0.630208" stop-color="#A8B4FE"/>
<stop offset="1" stop-color="#CDB9FD"/>
</radialGradient>
<radialGradient id="paint6_radial_875_4274" cx="0" cy="0" r="1" gradientUnits="userSpaceOnUse" gradientTransform="translate(43.1386 -20.9483) rotate(58.5069) scale(487.043 457.66)">
<stop offset="0.0104167" stop-color="#A4D7FC"/>
<stop offset="0.630208" stop-color="#A8B4FE"/>
<stop offset="1" stop-color="#CDB9FD"/>
</radialGradient>
<radialGradient id="paint7_radial_875_4274" cx="0" cy="0" r="1" gradientUnits="userSpaceOnUse" gradientTransform="translate(43.1386 -20.9483) rotate(58.5069) scale(487.043 457.66)">
<stop offset="0.0104167" stop-color="#A4D7FC"/>
<stop offset="0.630208" stop-color="#A8B4FE"/>
<stop offset="1" stop-color="#CDB9FD"/>
</radialGradient>
<radialGradient id="paint8_radial_875_4274" cx="0" cy="0" r="1" gradientUnits="userSpaceOnUse" gradientTransform="translate(43.1386 -20.9483) rotate(58.5069) scale(487.043 457.66)">
<stop offset="0.0104167" stop-color="#A4D7FC"/>
<stop offset="0.630208" stop-color="#A8B4FE"/>
<stop offset="1" stop-color="#CDB9FD"/>
</radialGradient>
<radialGradient id="paint9_radial_875_4274" cx="0" cy="0" r="1" gradientUnits="userSpaceOnUse" gradientTransform="translate(43.1386 -20.9483) rotate(58.5069) scale(487.043 457.66)">
<stop offset="0.0104167" stop-color="#A4D7FC"/>
<stop offset="0.630208" stop-color="#A8B4FE"/>
<stop offset="1" stop-color="#CDB9FD"/>
</radialGradient>
<radialGradient id="paint10_radial_875_4274" cx="0" cy="0" r="1" gradientUnits="userSpaceOnUse" gradientTransform="translate(43.1386 -20.9483) rotate(58.5069) scale(487.043 457.66)">
<stop offset="0.0104167" stop-color="#A4D7FC"/>
<stop offset="0.630208" stop-color="#A8B4FE"/>
<stop offset="1" stop-color="#CDB9FD"/>
</radialGradient>
<radialGradient id="paint11_radial_875_4274" cx="0" cy="0" r="1" gradientUnits="userSpaceOnUse" gradientTransform="translate(43.1386 -20.9483) rotate(58.5069) scale(487.043 457.66)">
<stop offset="0.0104167" stop-color="#A4D7FC"/>
<stop offset="0.630208" stop-color="#A8B4FE"/>
<stop offset="1" stop-color="#CDB9FD"/>
</radialGradient>
<radialGradient id="paint12_radial_875_4274" cx="0" cy="0" r="1" gradientUnits="userSpaceOnUse" gradientTransform="translate(43.1386 -20.9483) rotate(58.5069) scale(487.043 457.66)">
<stop offset="0.0104167" stop-color="#A4D7FC"/>
<stop offset="0.630208" stop-color="#A8B4FE"/>
<stop offset="1" stop-color="#CDB9FD"/>
</radialGradient>
<radialGradient id="paint13_radial_875_4274" cx="0" cy="0" r="1" gradientUnits="userSpaceOnUse" gradientTransform="translate(43.1386 -20.9483) rotate(58.5069) scale(487.043 457.66)">
<stop offset="0.0104167" stop-color="#A4D7FC"/>
<stop offset="0.630208" stop-color="#A8B4FE"/>
<stop offset="1" stop-color="#CDB9FD"/>
</radialGradient>
<radialGradient id="paint14_radial_875_4274" cx="0" cy="0" r="1" gradientUnits="userSpaceOnUse" gradientTransform="translate(43.1386 -20.9483) rotate(58.5069) scale(487.043 457.66)">
<stop offset="0.0104167" stop-color="#A4D7FC"/>
<stop offset="0.630208" stop-color="#A8B4FE"/>
<stop offset="1" stop-color="#CDB9FD"/>
</radialGradient>
<radialGradient id="paint15_radial_875_4274" cx="0" cy="0" r="1" gradientUnits="userSpaceOnUse" gradientTransform="translate(43.1386 -20.9483) rotate(58.5069) scale(487.043 457.66)">
<stop offset="0.0104167" stop-color="#A4D7FC"/>
<stop offset="0.630208" stop-color="#A8B4FE"/>
<stop offset="1" stop-color="#CDB9FD"/>
</radialGradient>
<radialGradient id="paint16_radial_875_4274" cx="0" cy="0" r="1" gradientUnits="userSpaceOnUse" gradientTransform="translate(43.1386 -20.9483) rotate(58.5069) scale(487.043 457.66)">
<stop offset="0.0104167" stop-color="#A4D7FC"/>
<stop offset="0.630208" stop-color="#A8B4FE"/>
<stop offset="1" stop-color="#CDB9FD"/>
</radialGradient>
</defs>
</svg>
