<svg width="24" height="24" viewBox="0 0 24 24" fill="none" xmlns="http://www.w3.org/2000/svg">
<mask id="mask0_875_4046" style="mask-type:alpha" maskUnits="userSpaceOnUse" x="0" y="0" width="24" height="24">
<rect width="24" height="24" fill="#D9D9D9"/>
</mask>
<g mask="url(#mask0_875_4046)">
<path d="M17.1 20.7501L3.1 13.8001C2.71667 13.6168 2.43767 13.3624 2.263 13.0371C2.08767 12.7124 2 12.3751 2 12.0251C2 11.6751 2.08767 11.3334 2.263 11.0001C2.43767 10.6668 2.71667 10.4084 3.1 10.2251L17.1 3.22509C17.4333 3.05843 17.771 2.98743 18.113 3.01209C18.4543 3.03743 18.7667 3.14176 19.05 3.32509C19.3333 3.50843 19.5627 3.74176 19.738 4.02509C19.9127 4.30843 20 4.64176 20 5.02509V8.00009C20.2833 8.00009 20.5207 8.09576 20.712 8.28709C20.904 8.47909 21 8.71676 21 9.00009C21 9.28343 20.904 9.52076 20.712 9.71209C20.5207 9.90409 20.2833 10.0001 20 10.0001H18C17.7167 10.0001 17.4793 9.90409 17.288 9.71209C17.096 9.52076 17 9.28343 17 9.00009C17 8.71676 17.096 8.47909 17.288 8.28709C17.4793 8.09576 17.7167 8.00009 18 8.00009V5.07509L13.6 7.25009C14.05 7.96676 14.3957 8.72509 14.637 9.52509C14.879 10.3251 15 11.1501 15 12.0001C15 12.8501 14.879 13.6834 14.637 14.5001C14.3957 15.3168 14.0417 16.0834 13.575 16.8001L17.975 18.9751V16.0001C17.6917 16.0001 17.4583 15.9041 17.275 15.7121C17.0917 15.5208 17 15.2834 17 15.0001C17 14.7168 17.096 14.4791 17.288 14.2871C17.4793 14.0958 17.7167 14.0001 18 14.0001H20C20.2833 14.0001 20.5207 14.0958 20.712 14.2871C20.904 14.4791 21 14.7168 21 15.0001C21 15.2834 20.904 15.5208 20.712 15.7121C20.5207 15.9041 20.2833 16.0001 20 16.0001V18.9751C20 19.3584 19.9127 19.6918 19.738 19.9751C19.5627 20.2584 19.3333 20.4918 19.05 20.6751C18.7667 20.8584 18.4543 20.9584 18.113 20.9751C17.771 20.9918 17.4333 20.9168 17.1 20.7501ZM11.75 15.8751C12.15 15.3084 12.4583 14.6958 12.675 14.0371C12.8917 13.3791 13 12.7001 13 12.0001C13 11.3001 12.8917 10.6291 12.675 9.98709C12.4583 9.34576 12.1583 8.73343 11.775 8.15009L4 12.0001L11.75 15.8751Z" fill="#797FF2"/>
</g>
</svg>
