<svg width="24" height="24" viewBox="0 0 24 24" fill="none" xmlns="http://www.w3.org/2000/svg">
<mask id="mask0_875_4030" style="mask-type:alpha" maskUnits="userSpaceOnUse" x="0" y="0" width="24" height="24">
<rect width="24" height="24" fill="#D9D9D9"/>
</mask>
<g mask="url(#mask0_875_4030)">
<path d="M4 20C3.71667 20 3.47933 19.904 3.288 19.712C3.096 19.5207 3 19.2833 3 19V7.25001C3.08333 7.25001 3.17933 7.26235 3.288 7.28701C3.396 7.31235 3.5 7.36668 3.6 7.45001L7 10L11.375 3.85001C11.5417 3.61668 11.7667 3.47935 12.05 3.43801C12.3333 3.39601 12.5917 3.46668 12.825 3.65001L17 7.00001H20C20.2833 7.00001 20.5207 7.09568 20.712 7.28701C20.904 7.47901 21 7.71668 21 8.00001V19C21 19.2833 20.904 19.5207 20.712 19.712C20.5207 19.904 20.2833 20 20 20H4ZM8 17L11.4 12.325C11.5667 12.0917 11.7873 11.954 12.062 11.912C12.3373 11.8707 12.5917 11.9417 12.825 12.125L19 16.95V9.00001H16.3L12.4 5.87501L7.45 12.825L5 11V14.6L8 17Z" fill="#00D68F"/>
</g>
</svg>
