<svg width="24" height="24" viewBox="0 0 24 24" fill="none" xmlns="http://www.w3.org/2000/svg">
<mask id="mask0_875_4054" style="mask-type:alpha" maskUnits="userSpaceOnUse" x="0" y="0" width="24" height="24">
<rect width="24" height="24" fill="#D9D9D9"/>
</mask>
<g mask="url(#mask0_875_4054)">
<path d="M15 15C15.8333 15 16.5417 14.7083 17.125 14.125C17.7083 13.5417 18 12.8333 18 12C18 11.1667 17.7083 10.4583 17.125 9.875C16.5417 9.29167 15.8333 9 15 9C14.1667 9 13.4583 9.29167 12.875 9.875C12.2917 10.4583 12 11.1667 12 12C12 12.8333 12.2917 13.5417 12.875 14.125C13.4583 14.7083 14.1667 15 15 15ZM15 17C13.8 17 12.7417 16.625 11.825 15.875C10.9083 15.125 10.3333 14.1667 10.1 13H7C6.71667 13 6.479 12.904 6.287 12.712C6.09567 12.5207 6 12.2833 6 12C6 11.7167 6.09567 11.479 6.287 11.287C6.479 11.0957 6.71667 11 7 11H10.1C10.1833 10.6333 10.296 10.2793 10.438 9.938C10.5793 9.596 10.7667 9.28333 11 9H5C4.71667 9 4.479 8.904 4.287 8.712C4.09567 8.52067 4 8.28333 4 8C4 7.71667 4.09567 7.479 4.287 7.287C4.479 7.09567 4.71667 7 5 7H15C16.3833 7 17.5627 7.48733 18.538 8.462C19.5127 9.43733 20 10.6167 20 12C20 13.3833 19.5127 14.5623 18.538 15.537C17.5627 16.5123 16.3833 17 15 17Z" fill="#FF3D71"/>
</g>
</svg>
