<svg width="304" height="82" viewBox="0 0 304 82" fill="none" xmlns="http://www.w3.org/2000/svg">
<path d="M148.422 0.00526586L148.952 26.5821V26.5926L159.257 32.364L159.193 51.9425L141.171 62.6427L123.031 51.9425L123.085 32.364L133.823 26.2977L134.09 0L111.726 4.87619L113.71 56.092L141.112 82L168.733 56.092L170.744 4.87619L148.422 0.00526586Z" fill="#1F182A"/>
<path d="M22.6318 36.7978L12.4229 37.3402L12.8989 56.6712L11.8239 56.6923L2.26211 56.8924L1.1979 56.9134L0.0267389 9.38377L0 8.35166L21.7869 7.37747L22.8725 7.33008L23.204 18.3199L22.1559 18.3673L12.086 18.8465L12.2411 26.6874L23.4179 26.1555L23.4447 27.235L23.6425 35.7236L23.6693 36.7452L22.6318 36.7978Z" fill="#1F182A"/>
<path d="M42.4988 7.99884L42.4828 9.10994L41.8785 55.5864L41.8678 56.6028L40.8357 56.6291L31.7444 56.8239L30.6642 56.8502L30.6481 55.7865L30.1134 9.50488L30.0973 8.47804L31.1401 8.44118L41.3758 8.04097L42.4988 7.99884Z" fill="#1F182A"/>
<path d="M73.9812 56.8134L72.8742 56.8239L51.9323 57.0925L50.8521 57.103V56.0393L50.713 9.89456V8.88351L51.7344 8.83612L72.5373 7.84087L73.6871 7.78821L73.4571 17.4089L73.4357 18.3831L72.4411 18.4358L62.553 18.915V26.1503L73.4197 25.55L73.393 26.6927L73.1897 34.781L73.163 35.7552L72.1737 35.8079L62.4835 36.2871V46.387L72.4143 45.971L73.4785 45.9236L73.9277 55.7234L73.9812 56.8134Z" fill="#1F182A"/>
<path d="M103.009 36.7978L92.8001 37.3402L93.2493 55.6128L93.2707 56.6712L92.2011 56.6923L82.6393 56.8924L81.5697 56.9134L81.5483 55.8655L80.3986 9.38377L80.3772 8.35166L103.244 7.33008L103.282 8.39905L103.581 18.3199L102.533 18.3673L92.4578 18.8465L92.6182 26.6874L103.795 26.1555L103.816 27.235L104.02 35.7236L104.046 36.7452L103.009 36.7978Z" fill="#1F182A"/>
<path d="M203.804 55.7234L203.857 56.8134L202.75 56.8239L181.809 57.0925L180.728 57.103V56.0393L180.589 9.89456V8.88351L181.611 8.83612L202.414 7.84087L203.563 7.78821L203.333 17.4089L203.312 18.3831L202.317 18.4358L192.429 18.915V26.1503L203.296 25.55L203.269 26.6927L203.066 34.781L203.039 35.7552L202.05 35.8079L192.36 36.2871V46.387L202.285 45.971L203.355 45.9236L203.804 55.7234Z" fill="#1F182A"/>
<path d="M242.057 52.3585L231.965 33.6962C236.377 31.0107 238.613 26.9559 238.613 21.6269C238.613 17.2562 237.238 13.6333 234.645 11.1426C232.078 8.67814 228.377 7.37747 223.938 7.37747C219.099 7.37747 213.499 8.30426 211.9 8.58862L211.029 8.74133L211.018 9.61546L210.537 56.7449L211.531 56.8239L220.152 57.4874L221.286 57.5717L221.307 56.4553L221.628 37.2981L222.238 37.1928L231.382 56.7449L231.81 57.6507L232.752 57.282L242.613 53.3958L242.057 52.3585ZM221.794 28.0828L221.965 17.2457H222.238C223.045 17.2457 223.708 17.3352 224.275 17.5195C226.623 18.2462 227.11 20.658 227.11 22.5537C227.11 26.3556 224.436 27.6879 221.794 28.0828Z" fill="#1F182A"/>
<path d="M274.844 40.8526C275.159 45.7551 274.036 49.7045 271.496 52.5902C269.004 55.4127 265.175 57.0609 260.41 57.361C256.341 57.6191 251.683 56.3605 247.297 53.8171L246.543 53.3853L246.827 52.5691L249.554 44.7546L249.977 43.5592L251.094 44.1806C254.207 45.9183 257.71 46.8504 260.453 46.6766C262.491 46.5502 263.672 45.1706 263.539 43.0853C263.33 39.8468 260.373 38.0037 256.956 35.8658C252.394 33.0117 247.223 29.7837 246.736 22.2904C246.207 14.1494 251.528 8.10416 259.678 7.59337C262.811 7.39854 266.876 7.95672 270.293 9.06255L271.159 9.34164L271.02 10.2316L269.523 19.5205L268.325 19.1203C265.293 18.1146 262.255 17.588 260.207 17.7144C258.367 17.8302 257.806 19.3362 257.886 20.5948C258.036 22.917 260.747 24.6021 263.881 26.5663C268.55 29.4783 274.352 33.1117 274.855 40.8578L274.844 40.8526Z" fill="#1F182A"/>
<path d="M304 56.8134L302.898 56.8239L281.956 57.0925L280.876 57.103L280.871 56.0393L280.737 9.89456L280.732 8.88351L281.753 8.83612L302.561 7.84087L303.711 7.78821L303.481 17.4089L303.46 18.3831L302.465 18.4358L292.572 18.915V26.1503L303.444 25.55L303.412 26.6927L303.214 34.781L303.187 35.7552L302.198 35.8079L292.508 36.2871V46.387L302.433 45.971L303.497 45.9236L303.952 55.7234L304 56.8134Z" fill="#1F182A"/>
<path d="M153 49.6097V36.2344L141.235 29.5467L129.47 36.2344V49.6097L141.235 56.2973L153 49.6097Z" fill="#1F182A"/>
</svg>
