<svg width="432" height="58" viewBox="0 0 432 58" fill="none" xmlns="http://www.w3.org/2000/svg">
<g opacity="0.1">
<path d="M417.367 -62.9446H415.441V-61.0171H417.367V-62.9446Z" fill="#FEE3D4"/>
<path d="M429.989 -63H427.951V-60.9617H429.989V-63Z" fill="#FEE3D4"/>
<path d="M442.521 -62.9778H440.54V-60.9949H442.521V-62.9778Z" fill="#FEE3D4"/>
<path d="M398.546 -56.6856H396.564V-54.7027H398.546V-56.6856Z" fill="#FEE3D4"/>
<path d="M449.02 -56.9072H446.607V-54.4922H449.02V-56.9072Z" fill="#FEE3D4"/>
<path d="M461.454 -56.7853H459.284V-54.6141H461.454V-56.7853Z" fill="#FEE3D4"/>
<path d="M385.957 -50.3934H384.009V-48.4437H385.957V-50.3934Z" fill="#FEE3D4"/>
<path d="M405.122 -50.7036H402.542V-48.1225H405.122V-50.7036Z" fill="#FEE3D4"/>
<path d="M417.821 -50.8365H414.976V-47.9895H417.821V-50.8365Z" fill="#FEE3D4"/>
<path d="M430.442 -50.8919H427.486V-47.9341H430.442V-50.8919Z" fill="#FEE3D4"/>
<path d="M442.975 -50.8587H440.075V-47.9563H442.975V-50.8587Z" fill="#FEE3D4"/>
<path d="M455.453 -50.7811H452.718V-48.0449H455.453V-50.7811Z" fill="#FEE3D4"/>
<path d="M467.875 -50.6371H465.439V-48.2H467.875V-50.6371Z" fill="#FEE3D4"/>
<path d="M480.242 -50.4266H478.205V-48.3883H480.242V-50.4266Z" fill="#FEE3D4"/>
<path d="M392.567 -44.4335H389.965V-41.8302H392.567V-44.4335Z" fill="#FEE3D4"/>
<path d="M405.344 -44.6329H402.332V-41.6198H405.344V-44.6329Z" fill="#FEE3D4"/>
<path d="M418.031 -44.7659H414.754V-41.4868H418.031V-44.7659Z" fill="#FEE3D4"/>
<path d="M430.642 -44.8102H427.287V-41.4536H430.642V-44.8102Z" fill="#FEE3D4"/>
<path d="M443.197 -44.8102H439.842V-41.4536H443.197V-44.8102Z" fill="#FEE3D4"/>
<path d="M455.674 -44.7105H452.508V-41.5422H455.674V-44.7105Z" fill="#FEE3D4"/>
<path d="M486.586 -44.212H484.416V-42.0407H486.586V-44.212Z" fill="#FEE3D4"/>
<path d="M373.513 -37.9308H371.343V-35.7596H373.513V-37.9308Z" fill="#FEE3D4"/>
<path d="M386.356 -38.2078H383.621V-35.4716H386.356V-38.2078Z" fill="#FEE3D4"/>
<path d="M399.166 -38.4515H395.944V-35.2278H399.166V-38.4515Z" fill="#FEE3D4"/>
<path d="M411.898 -38.6177H408.344V-35.0617H411.898V-38.6177Z" fill="#FEE3D4"/>
<path d="M424.564 -38.7284H420.799V-34.962H424.564V-38.7284Z" fill="#FEE3D4"/>
<path d="M437.141 -38.7395H433.343V-34.9398H437.141V-38.7395Z" fill="#FEE3D4"/>
<path d="M449.663 -38.6952H445.954V-34.9841H449.663V-38.6952Z" fill="#FEE3D4"/>
<path d="M462.074 -38.5512H458.664V-35.1392H462.074V-38.5512Z" fill="#FEE3D4"/>
<path d="M474.451 -38.3629H471.418V-35.3275H474.451V-38.3629Z" fill="#FEE3D4"/>
<path d="M492.896 -37.953H490.671V-35.7263H492.896V-37.953Z" fill="#FEE3D4"/>
<path d="M380.123 -31.971H377.3V-29.1461H380.123V-31.971Z" fill="#FEE3D4"/>
<path d="M392.944 -32.2368H389.589V-28.8802H392.944V-32.2368Z" fill="#FEE3D4"/>
<path d="M405.731 -32.4584H401.934V-28.6587H405.731V-32.4584Z" fill="#FEE3D4"/>
<path d="M418.43 -32.5913H414.367V-28.5257H418.43V-32.5913Z" fill="#FEE3D4"/>
<path d="M431.062 -32.6578H426.866V-28.4593H431.062V-32.6578Z" fill="#FEE3D4"/>
<path d="M443.595 -32.6246H439.455V-28.4814H443.595V-32.6246Z" fill="#FEE3D4"/>
<path d="M456.084 -32.547H452.098V-28.559H456.084V-32.547Z" fill="#FEE3D4"/>
<path d="M468.473 -32.3698H464.841V-28.7362H468.473V-32.3698Z" fill="#FEE3D4"/>
<path d="M480.784 -32.126H477.64V-28.9799H480.784V-32.126Z" fill="#FEE3D4"/>
<path d="M499.174 -31.6719H496.949V-29.4452H499.174V-31.6719Z" fill="#FEE3D4"/>
<path d="M360.903 -25.3132H358.821V-23.2305H360.903V-25.3132Z" fill="#FEE3D4"/>
<path d="M373.834 -25.6787H371.011V-22.8539H373.834V-25.6787Z" fill="#FEE3D4"/>
<path d="M386.688 -25.9778H383.278V-22.5659H386.688V-25.9778Z" fill="#FEE3D4"/>
<path d="M399.52 -26.2326H395.59V-22.3H399.52V-26.2326Z" fill="#FEE3D4"/>
<path d="M412.274 -26.421H407.967V-22.1117H412.274V-26.421Z" fill="#FEE3D4"/>
<path d="M424.929 -26.5207H420.434V-22.0231H424.929V-26.5207Z" fill="#FEE3D4"/>
<path d="M431.24 -26.5428H426.689V-21.9898H431.24V-26.5428Z" fill="#FEE3D4"/>
<path d="M437.517 -26.5428H432.967V-21.9898H437.517V-26.5428Z" fill="#FEE3D4"/>
<path d="M443.795 -26.5317H439.266V-22.0009H443.795V-26.5317Z" fill="#FEE3D4"/>
<path d="M450.028 -26.4985H445.588V-22.0563H450.028V-26.4985Z" fill="#FEE3D4"/>
<path d="M462.461 -26.3545H458.287V-22.1781H462.461V-26.3545Z" fill="#FEE3D4"/>
<path d="M474.806 -26.144H471.064V-22.3997H474.806V-26.144Z" fill="#FEE3D4"/>
<path d="M487.095 -25.8671H483.895V-22.6656H487.095V-25.8671Z" fill="#FEE3D4"/>
<path d="M505.429 -25.3575H503.259V-23.1862H505.429V-25.3575Z" fill="#FEE3D4"/>
<path d="M373.978 -19.5416H370.867V-16.4287H373.978V-19.5416Z" fill="#FEE3D4"/>
<path d="M386.865 -19.8518H383.123V-16.1075H386.865V-19.8518Z" fill="#FEE3D4"/>
<path d="M399.675 -20.1177H395.424V-15.8638H399.675V-20.1177Z" fill="#FEE3D4"/>
<path d="M406.074 -20.2174H401.601V-15.7419H406.074V-20.2174Z" fill="#FEE3D4"/>
<path d="M412.44 -20.306H407.801V-15.6644H412.44V-20.306Z" fill="#FEE3D4"/>
<path d="M418.784 -20.3725H414.013V-15.5979H418.784V-20.3725Z" fill="#FEE3D4"/>
<path d="M431.417 -20.4389H426.512V-15.5314H431.417V-20.4389Z" fill="#FEE3D4"/>
<path d="M443.95 -20.4168H439.1V-15.5647H443.95V-20.4168Z" fill="#FEE3D4"/>
<path d="M450.194 -20.3725H445.422V-15.5979H450.194V-20.3725Z" fill="#FEE3D4"/>
<path d="M456.416 -20.3171H451.755V-15.6533H456.416V-20.3171Z" fill="#FEE3D4"/>
<path d="M462.616 -20.2395H458.121V-15.7419H462.616V-20.2395Z" fill="#FEE3D4"/>
<path d="M468.794 -20.1287H464.509V-15.8416H468.794V-20.1287Z" fill="#FEE3D4"/>
<path d="M481.116 -19.885H477.319V-16.0853H481.116V-19.885Z" fill="#FEE3D4"/>
<path d="M493.361 -19.5749H490.195V-16.4066H493.361V-19.5749Z" fill="#FEE3D4"/>
<path d="M511.651 -18.9988H509.614V-16.9605H511.651V-18.9988Z" fill="#FEE3D4"/>
<path d="M354.67 -12.7952H352.478V-10.6018H354.67V-12.7952Z" fill="#FEE3D4"/>
<path d="M367.656 -13.2051H364.645V-10.1919H367.656V-13.2051Z" fill="#FEE3D4"/>
<path d="M380.555 -13.5596H376.846V-9.8485H380.555V-13.5596Z" fill="#FEE3D4"/>
<path d="M393.42 -13.8587H389.113V-9.5494H393.42V-13.8587Z" fill="#FEE3D4"/>
<path d="M406.218 -14.0802H401.446V-9.30569H406.218V-14.0802Z" fill="#FEE3D4"/>
<path d="M418.939 -14.2353H413.869V-9.16168H418.939V-14.2353Z" fill="#FEE3D4"/>
<path d="M425.25 -14.2796H420.102V-9.12844H425.25V-14.2796Z" fill="#FEE3D4"/>
<path d="M431.561 -14.3018H426.357V-9.09521H431.561V-14.3018Z" fill="#FEE3D4"/>
<path d="M437.849 -14.3018H432.646V-9.09521H437.849V-14.3018Z" fill="#FEE3D4"/>
<path d="M444.105 -14.2796H438.956V-9.12844H444.105V-14.2796Z" fill="#FEE3D4"/>
<path d="M456.571 -14.1799H451.611V-9.21706H456.571V-14.1799Z" fill="#FEE3D4"/>
<path d="M468.949 -13.9916H464.365V-9.40539H468.949V-13.9916Z" fill="#FEE3D4"/>
<path d="M475.105 -13.8698H470.765V-9.52725H475.105V-13.8698Z" fill="#FEE3D4"/>
<path d="M487.383 -13.5817H483.619V-9.81527H487.383V-13.5817Z" fill="#FEE3D4"/>
<path d="M499.595 -13.2272H496.528V-10.1587H499.595V-13.2272Z" fill="#FEE3D4"/>
<path d="M361.279 -6.82425H358.456V-3.9994H361.279V-6.82425Z" fill="#FEE3D4"/>
<path d="M374.211 -7.2009H370.635V-3.62276H374.211V-7.2009Z" fill="#FEE3D4"/>
<path d="M387.109 -7.54432H382.857V-3.29042H387.109V-7.54432Z" fill="#FEE3D4"/>
<path d="M393.541 -7.68832H388.991V-3.13533H393.541V-7.68832Z" fill="#FEE3D4"/>
<path d="M399.952 -7.81018H395.158V-3.01347H399.952V-7.81018Z" fill="#FEE3D4"/>
<path d="M406.34 -7.92096H401.325V-2.90269H406.34V-7.92096Z" fill="#FEE3D4"/>
<path d="M412.717 -8.02066H407.514V-2.81407H412.717V-8.02066Z" fill="#FEE3D4"/>
<path d="M419.061 -8.08713H413.725V-2.7476H419.061V-8.08713Z" fill="#FEE3D4"/>
<path d="M425.405 -8.14252H419.958V-2.69222H425.405V-8.14252Z" fill="#FEE3D4"/>
<path d="M431.716 -8.16467H426.213V-2.65898H431.716V-8.16467Z" fill="#FEE3D4"/>
<path d="M437.993 -8.16467H432.491V-2.65898H437.993V-8.16467Z" fill="#FEE3D4"/>
<path d="M444.249 -8.14252H438.801V-2.69222H444.249V-8.14252Z" fill="#FEE3D4"/>
<path d="M450.493 -8.09821H445.123V-2.72545H450.493V-8.09821Z" fill="#FEE3D4"/>
<path d="M456.704 -8.03174H451.478V-2.80299H456.704V-8.03174Z" fill="#FEE3D4"/>
<path d="M462.893 -7.93204H457.855V-2.89162H462.893V-7.93204Z" fill="#FEE3D4"/>
<path d="M475.238 -7.72156H470.632V-3.11318H475.238V-7.72156Z" fill="#FEE3D4"/>
<path d="M481.371 -7.56647H477.064V-3.25718H481.371V-7.56647Z" fill="#FEE3D4"/>
<path d="M493.594 -7.23413H489.962V-3.6006H493.594V-7.23413Z" fill="#FEE3D4"/>
<path d="M505.795 -6.86856H502.894V-3.96616H505.795V-6.86856Z" fill="#FEE3D4"/>
<path d="M517.94 -6.4476H515.881V-4.38712H517.94V-6.4476Z" fill="#FEE3D4"/>
<path d="M348.359 -0.199703H346.222V1.93832H348.359V-0.199703Z" fill="#FEE3D4"/>
<path d="M361.368 -0.631737H358.356V2.38144H361.368V-0.631737Z" fill="#FEE3D4"/>
<path d="M374.321 -1.03054H370.524V2.76916H374.321V-1.03054Z" fill="#FEE3D4"/>
<path d="M387.231 -1.36288H382.758V3.11257H387.231V-1.36288Z" fill="#FEE3D4"/>
<path d="M400.062 -1.63982H395.047V3.37844H400.062V-1.63982Z" fill="#FEE3D4"/>
<path d="M412.839 -1.8503H407.392V3.60001H412.839V-1.8503Z" fill="#FEE3D4"/>
<path d="M419.183 -1.91677H413.603V3.66647H419.183V-1.91677Z" fill="#FEE3D4"/>
<path d="M425.527 -1.97216H419.836V3.72186H425.527V-1.97216Z" fill="#FEE3D4"/>
<path d="M431.838 -2.00539H426.091V3.74402H431.838V-2.00539Z" fill="#FEE3D4"/>
<path d="M438.126 -2.01647H432.358V3.75509H438.126V-2.01647Z" fill="#FEE3D4"/>
<path d="M444.381 -1.99431H438.669V3.72186H444.381V-1.99431Z" fill="#FEE3D4"/>
<path d="M450.615 -1.93893H445.001V3.67754H450.615V-1.93893Z" fill="#FEE3D4"/>
<path d="M456.826 -1.86138H451.356V3.61108H456.826V-1.86138Z" fill="#FEE3D4"/>
<path d="M463.015 -1.77275H457.734V3.51138H463.015V-1.77275Z" fill="#FEE3D4"/>
<path d="M469.193 -1.66198H464.122V3.41167H469.193V-1.66198Z" fill="#FEE3D4"/>
<path d="M481.482 -1.39611H476.954V3.13474H481.482V-1.39611Z" fill="#FEE3D4"/>
<path d="M487.593 -1.22995H483.397V2.96856H487.593V-1.22995Z" fill="#FEE3D4"/>
<path d="M499.794 -0.864368H496.329V2.603H499.794V-0.864368Z" fill="#FEE3D4"/>
<path d="M511.95 -0.454491H509.293V2.20419H511.95V-0.454491Z" fill="#FEE3D4"/>
<path d="M361.434 5.58293H358.29V8.72903H361.434V5.58293Z" fill="#FEE3D4"/>
<path d="M374.388 5.19521H370.458V9.12784H374.388V5.19521Z" fill="#FEE3D4"/>
<path d="M380.865 5.00689H376.558V9.31617H380.865V5.00689Z" fill="#FEE3D4"/>
<path d="M387.308 4.84072H382.669V9.48234H387.308V4.84072Z" fill="#FEE3D4"/>
<path d="M393.73 4.68563H388.803V9.61527H393.73V4.68563Z" fill="#FEE3D4"/>
<path d="M400.151 4.5527H394.947V9.75928H400.151V4.5527Z" fill="#FEE3D4"/>
<path d="M406.561 4.43084H401.114V9.88114H406.561V4.43084Z" fill="#FEE3D4"/>
<path d="M412.939 4.34222H407.303V9.98083H412.939V4.34222Z" fill="#FEE3D4"/>
<path d="M419.305 4.25359H413.503V10.0584H419.305V4.25359Z" fill="#FEE3D4"/>
<path d="M425.649 4.18713H419.714V10.1248H425.649V4.18713Z" fill="#FEE3D4"/>
<path d="M431.959 4.16497H425.97V10.1581H431.959V4.16497Z" fill="#FEE3D4"/>
<path d="M438.248 4.14282H432.236V10.1581H438.248V4.14282Z" fill="#FEE3D4"/>
<path d="M444.492 4.18713H438.558V10.1248H444.492V4.18713Z" fill="#FEE3D4"/>
<path d="M450.714 4.24252H444.891V10.0695H450.714V4.24252Z" fill="#FEE3D4"/>
<path d="M456.925 4.32007H451.257V9.99192H456.925V4.32007Z" fill="#FEE3D4"/>
<path d="M463.103 4.41976H457.634V9.89222H463.103V4.41976Z" fill="#FEE3D4"/>
<path d="M469.281 4.53054H464.022V9.79251H469.281V4.53054Z" fill="#FEE3D4"/>
<path d="M475.426 4.66348H470.444V9.64851H475.426V4.66348Z" fill="#FEE3D4"/>
<path d="M487.682 4.97366H483.32V9.33833H487.682V4.97366Z" fill="#FEE3D4"/>
<path d="M499.871 5.3503H496.262V8.96168H499.871V5.3503Z" fill="#FEE3D4"/>
<path d="M512.039 5.74911H509.216V8.57395H512.039V5.74911Z" fill="#FEE3D4"/>
<path d="M524.14 6.2033H522.247V8.09761H524.14V6.2033Z" fill="#FEE3D4"/>
<path d="M341.982 12.4844H340.055V14.412H341.982V12.4844Z" fill="#FEE3D4"/>
<path d="M355.002 12.0192H352.156V14.8662H355.002V12.0192Z" fill="#FEE3D4"/>
<path d="M367.989 11.5982H364.302V15.2871H367.989V11.5982Z" fill="#FEE3D4"/>
<path d="M380.92 11.2326H376.502V15.6527H380.92V11.2326Z" fill="#FEE3D4"/>
<path d="M393.807 10.9114H388.736V15.985H393.807V10.9114Z" fill="#FEE3D4"/>
<path d="M400.217 10.7674H394.881V16.1069H400.217V10.7674Z" fill="#FEE3D4"/>
<path d="M406.628 10.6455H401.048V16.2287H406.628V10.6455Z" fill="#FEE3D4"/>
<path d="M413.016 10.5458H407.215V16.3506H413.016V10.5458Z" fill="#FEE3D4"/>
<path d="M419.393 10.4461H413.404V16.4392H419.393V10.4461Z" fill="#FEE3D4"/>
<path d="M425.759 10.3686H419.604V16.5278H425.759V10.3686Z" fill="#FEE3D4"/>
<path d="M432.081 10.3243H425.848V16.5611H432.081V10.3243Z" fill="#FEE3D4"/>
<path d="M438.359 10.3243H432.125V16.5611H438.359V10.3243Z" fill="#FEE3D4"/>
<path d="M444.614 10.3464H438.436V16.5278H444.614V10.3464Z" fill="#FEE3D4"/>
<path d="M450.814 10.435H444.802V16.4503H450.814V10.435Z" fill="#FEE3D4"/>
<path d="M457.025 10.5126H451.168V16.3727H457.025V10.5126Z" fill="#FEE3D4"/>
<path d="M463.192 10.6234H457.556V16.262H463.192V10.6234Z" fill="#FEE3D4"/>
<path d="M469.348 10.7452H463.956V16.1401H469.348V10.7452Z" fill="#FEE3D4"/>
<path d="M475.503 10.8781H470.377V16.0072H475.503V10.8781Z" fill="#FEE3D4"/>
<path d="M481.615 11.0443H476.821V15.841H481.615V11.0443Z" fill="#FEE3D4"/>
<path d="M487.737 11.2105H483.264V15.6859H487.737V11.2105Z" fill="#FEE3D4"/>
<path d="M493.837 11.3766H489.719V15.4976H493.837V11.3766Z" fill="#FEE3D4"/>
<path d="M506.005 11.7755H502.673V15.1099H506.005V11.7755Z" fill="#FEE3D4"/>
<path d="M361.523 18.0566H358.19V21.391H361.523V18.0566Z" fill="#FEE3D4"/>
<path d="M374.499 17.6578H370.358V21.8009H374.499V17.6578Z" fill="#FEE3D4"/>
<path d="M380.953 17.4805H376.458V21.9781H380.953V17.4805Z" fill="#FEE3D4"/>
<path d="M387.408 17.3033H382.559V22.1554H387.408V17.3033Z" fill="#FEE3D4"/>
<path d="M393.84 17.1482H388.692V22.2994H393.84V17.1482Z" fill="#FEE3D4"/>
<path d="M400.273 17.0042H394.826V22.4545H400.273V17.0042Z" fill="#FEE3D4"/>
<path d="M406.683 16.8823H400.993V22.5763H406.683V16.8823Z" fill="#FEE3D4"/>
<path d="M413.082 16.7605H407.148V22.6982H413.082V16.7605Z" fill="#FEE3D4"/>
<path d="M419.482 16.6497H413.326V22.809H419.482V16.6497Z" fill="#FEE3D4"/>
<path d="M425.859 16.5611H419.515V22.9087H425.859V16.5611Z" fill="#FEE3D4"/>
<path d="M432.148 16.5389H425.781V22.9087H432.148V16.5389Z" fill="#FEE3D4"/>
<path d="M438.425 16.5389H432.059V22.9087H438.425V16.5389Z" fill="#FEE3D4"/>
<path d="M444.702 16.5611L438.359 16.5611L438.359 22.9087H444.702V16.5611Z" fill="#FEE3D4"/>
<path d="M450.891 16.6386H444.714V22.8201H450.891V16.6386Z" fill="#FEE3D4"/>
<path d="M457.08 16.7272H451.091V22.7204H457.08V16.7272Z" fill="#FEE3D4"/>
<path d="M463.247 16.8491H457.501V22.5985H463.247V16.8491Z" fill="#FEE3D4"/>
<path d="M469.403 16.971H463.9V22.4766H469.403V16.971Z" fill="#FEE3D4"/>
<path d="M475.536 17.1261H470.333V22.3326H475.536V17.1261Z" fill="#FEE3D4"/>
<path d="M487.792 17.4362H483.209V22.0225H487.792V17.4362Z" fill="#FEE3D4"/>
<path d="M499.971 17.8129H496.151V21.6347H499.971V17.8129Z" fill="#FEE3D4"/>
<path d="M512.116 18.2338H509.138V21.2138H512.116V18.2338Z" fill="#FEE3D4"/>
<path d="M524.217 18.6991H522.158V20.7596H524.217V18.6991Z" fill="#FEE3D4"/>
<path d="M342.037 25.0024H340V27.0407H342.037V25.0024Z" fill="#FEE3D4"/>
<path d="M355.057 24.5371H352.101V27.4949H355.057V24.5371Z" fill="#FEE3D4"/>
<path d="M368.044 24.1162H364.246V27.9159H368.044V24.1162Z" fill="#FEE3D4"/>
<path d="M380.986 23.7395H376.436V28.2925H380.986V23.7395Z" fill="#FEE3D4"/>
<path d="M393.874 23.4072H388.67V28.6138H393.874V23.4072Z" fill="#FEE3D4"/>
<path d="M400.306 23.2632H394.804V28.7689H400.306V23.2632Z" fill="#FEE3D4"/>
<path d="M406.705 23.1413H400.959V28.8907H406.705V23.1413Z" fill="#FEE3D4"/>
<path d="M413.116 23.0195H407.126V29.0126H413.116V23.0195Z" fill="#FEE3D4"/>
<path d="M419.515 22.8976H413.282V29.1344H419.515V22.8976Z" fill="#FEE3D4"/>
<path d="M425.859 22.8311H419.493V29.2009H425.859V22.8311Z" fill="#FEE3D4"/>
<path d="M432.148 22.8311H425.781V29.2009H432.148V22.8311Z" fill="#FEE3D4"/>
<path d="M438.425 22.8311H432.059V29.2009H438.425V22.8311Z" fill="#FEE3D4"/>
<path d="M444.703 22.8311H438.336V29.2009H444.703V22.8311Z" fill="#FEE3D4"/>
<path d="M450.958 22.8644H444.669V29.1566H450.958V22.8644Z" fill="#FEE3D4"/>
<path d="M457.114 22.9862H451.069V29.0347H457.114V22.9862Z" fill="#FEE3D4"/>
<path d="M463.269 23.1081H457.468V28.9129H463.269V23.1081Z" fill="#FEE3D4"/>
<path d="M469.436 23.2299H463.878V28.791H469.436V23.2299Z" fill="#FEE3D4"/>
<path d="M475.57 23.385H470.311V28.647H475.57V23.385Z" fill="#FEE3D4"/>
<path d="M481.692 23.529H476.732V28.4919H481.692V23.529Z" fill="#FEE3D4"/>
<path d="M487.804 23.7063H483.198V28.3147H487.804V23.7063Z" fill="#FEE3D4"/>
<path d="M493.904 23.8835H489.652V28.1374H493.904V23.8835Z" fill="#FEE3D4"/>
<path d="M506.071 24.2823H502.606V27.7497H506.071V24.2823Z" fill="#FEE3D4"/>
<path d="M518.206 24.7254H515.626V27.3066H518.206V24.7254Z" fill="#FEE3D4"/>
<path d="M355.057 30.8183H352.101V33.776H355.057V30.8183Z" fill="#FEE3D4"/>
<path d="M368.044 30.3973H364.246V34.197H368.044V30.3973Z" fill="#FEE3D4"/>
<path d="M380.986 30.0207H376.436V34.5737H380.986V30.0207Z" fill="#FEE3D4"/>
<path d="M387.441 29.8434H382.536V34.7509H387.441V29.8434Z" fill="#FEE3D4"/>
<path d="M393.874 29.6994H388.67V34.906H393.874V29.6994Z" fill="#FEE3D4"/>
<path d="M400.306 29.5443H394.804V35.05H400.306V29.5443Z" fill="#FEE3D4"/>
<path d="M406.716 29.4114H400.948V35.1829H406.716V29.4114Z" fill="#FEE3D4"/>
<path d="M413.116 29.2895H407.104V35.3048H413.116V29.2895Z" fill="#FEE3D4"/>
<path d="M419.515 29.1787H413.282V35.4156H419.515V29.1787Z" fill="#FEE3D4"/>
<path d="M425.859 29.1123H419.493V35.482H425.859V29.1123Z" fill="#FEE3D4"/>
<path d="M432.148 29.1123H425.781V35.482H432.148V29.1123Z" fill="#FEE3D4"/>
<path d="M438.425 29.1123H432.059V35.482H438.425V29.1123Z" fill="#FEE3D4"/>
<path d="M444.703 29.1123H438.336V35.482H444.703V29.1123Z" fill="#FEE3D4"/>
<path d="M450.958 29.1566H444.669V35.4488H450.958V29.1566Z" fill="#FEE3D4"/>
<path d="M457.125 29.2674H451.058V35.338H457.125V29.2674Z" fill="#FEE3D4"/>
<path d="M463.269 29.4003H457.468V35.2051H463.269V29.4003Z" fill="#FEE3D4"/>
<path d="M469.436 29.5222H463.878V35.0832H469.436V29.5222Z" fill="#FEE3D4"/>
<path d="M475.57 29.6551H470.289V34.9392H475.57V29.6551Z" fill="#FEE3D4"/>
<path d="M487.826 29.9763H483.187V34.618H487.826V29.9763Z" fill="#FEE3D4"/>
<path d="M499.993 30.3752H496.14V34.2302H499.993V30.3752Z" fill="#FEE3D4"/>
<path d="M512.139 30.7961H509.127V33.8093H512.139V30.7961Z" fill="#FEE3D4"/>
<path d="M524.229 31.2503H522.147V33.3329H524.229V31.2503Z" fill="#FEE3D4"/>
<path d="M342.004 37.5979H340.022V39.5808H342.004V37.5979Z" fill="#FEE3D4"/>
<path d="M355.035 37.1326H352.134V40.035H355.035V37.1326Z" fill="#FEE3D4"/>
<path d="M368.022 36.7006H364.257V40.4671H368.022V36.7006Z" fill="#FEE3D4"/>
<path d="M380.975 36.324H376.447V40.8548H380.975V36.324Z" fill="#FEE3D4"/>
<path d="M393.84 36.0138H388.692V41.165H393.84V36.0138Z" fill="#FEE3D4"/>
<path d="M400.273 35.8587H394.826V41.309H400.273V35.8587Z" fill="#FEE3D4"/>
<path d="M406.694 35.7258H400.981V41.4419H406.694V35.7258Z" fill="#FEE3D4"/>
<path d="M413.082 35.615H407.148V41.5527H413.082V35.615Z" fill="#FEE3D4"/>
<path d="M419.482 35.4931H413.304V41.6745H419.482V35.4931Z" fill="#FEE3D4"/>
<path d="M425.859 35.4156H419.515V41.7632H425.859V35.4156Z" fill="#FEE3D4"/>
<path d="M432.148 35.3934H425.781V41.7632H432.148V35.3934Z" fill="#FEE3D4"/>
<path d="M438.425 35.3934H432.059V41.7632H438.425V35.3934Z" fill="#FEE3D4"/>
<path d="M444.703 35.3934H438.336V41.7632H444.703V35.3934Z" fill="#FEE3D4"/>
<path d="M450.914 35.482H444.703L444.702 41.6856H450.914V35.482Z" fill="#FEE3D4"/>
<path d="M457.08 35.5928H451.091V41.5859H457.08V35.5928Z" fill="#FEE3D4"/>
<path d="M463.247 35.7147H457.501V41.4641H463.247V35.7147Z" fill="#FEE3D4"/>
<path d="M469.403 35.8365H463.9V41.3422H469.403V35.8365Z" fill="#FEE3D4"/>
<path d="M475.547 35.9695H470.322V41.1982H475.547V35.9695Z" fill="#FEE3D4"/>
<path d="M481.67 36.1356H476.765V41.0431H481.67V36.1356Z" fill="#FEE3D4"/>
<path d="M487.792 36.2907H483.209V40.8769H487.792V36.2907Z" fill="#FEE3D4"/>
<path d="M493.893 36.468H489.664V40.6997H493.893V36.468Z" fill="#FEE3D4"/>
<path d="M506.049 36.8778H502.639V40.2898H506.049V36.8778Z" fill="#FEE3D4"/>
<path d="M518.184 37.3099H515.637V39.8578H518.184V37.3099Z" fill="#FEE3D4"/>
<path d="M361.501 43.2255H358.224V46.5045H361.501V43.2255Z" fill="#FEE3D4"/>
<path d="M374.476 42.8266H370.38V46.9255H374.476V42.8266Z" fill="#FEE3D4"/>
<path d="M380.92 42.6494H376.48V47.0916H380.92V42.6494Z" fill="#FEE3D4"/>
<path d="M387.375 42.4832H382.603V47.2578H387.375V42.4832Z" fill="#FEE3D4"/>
<path d="M393.818 42.3171H388.725V47.4129H393.818V42.3171Z" fill="#FEE3D4"/>
<path d="M400.24 42.1841H394.87V47.5569H400.24V42.1841Z" fill="#FEE3D4"/>
<path d="M406.639 42.0623H401.026V47.6787H406.639V42.0623Z" fill="#FEE3D4"/>
<path d="M413.027 41.9515H407.204V47.7785H413.027V41.9515Z" fill="#FEE3D4"/>
<path d="M419.404 41.8629H413.393V47.8781H419.404V41.8629Z" fill="#FEE3D4"/>
<path d="M425.77 41.7743H419.592V47.9557H425.77V41.7743Z" fill="#FEE3D4"/>
<path d="M432.103 41.7299H425.815V48.0222H432.103V41.7299Z" fill="#FEE3D4"/>
<path d="M438.392 41.7299H432.103V48.0222H438.392V41.7299Z" fill="#FEE3D4"/>
<path d="M444.625 41.7632L438.425 41.7632V47.9668H444.625V41.7632Z" fill="#FEE3D4"/>
<path d="M450.836 41.8296H444.769V47.9003H450.836V41.8296Z" fill="#FEE3D4"/>
<path d="M457.025 41.9294H451.146V47.8117H457.025V41.9294Z" fill="#FEE3D4"/>
<path d="M463.203 42.0401H457.534V47.712H463.203V42.0401Z" fill="#FEE3D4"/>
<path d="M469.348 42.1731H463.956V47.568H469.348V42.1731Z" fill="#FEE3D4"/>
<path d="M481.637 42.4611H476.81V47.291H481.637V42.4611Z" fill="#FEE3D4"/>
<path d="M493.849 42.7934H489.708V46.9365H493.849V42.7934Z" fill="#FEE3D4"/>
<path d="M506.016 43.1922H502.661V46.5488H506.016V43.1922Z" fill="#FEE3D4"/>
<path d="M524.206 43.8569H522.169V45.8952H524.206V43.8569Z" fill="#FEE3D4"/>
<path d="M341.926 50.2488H340.111V52.0656H341.926V50.2488Z" fill="#FEE3D4"/>
<path d="M354.946 49.7835H352.212V52.5198H354.946V49.7835Z" fill="#FEE3D4"/>
<path d="M367.933 49.3626H364.357V52.9407H367.933V49.3626Z" fill="#FEE3D4"/>
<path d="M380.876 48.9859H376.536V53.3285H380.876V48.9859Z" fill="#FEE3D4"/>
<path d="M393.752 48.6758H388.792V53.6386H393.752V48.6758Z" fill="#FEE3D4"/>
<path d="M400.162 48.5428H394.936V53.7716H400.162V48.5428Z" fill="#FEE3D4"/>
<path d="M406.573 48.421H401.103V53.8934H406.573V48.421Z" fill="#FEE3D4"/>
<path d="M412.95 48.3213H407.281V53.9931H412.95V48.3213Z" fill="#FEE3D4"/>
<path d="M419.327 48.2326H413.47V54.0928H419.327V48.2326Z" fill="#FEE3D4"/>
<path d="M425.671 48.1551H419.681V54.1482H425.671V48.1551Z" fill="#FEE3D4"/>
<path d="M431.981 48.1329H425.936V54.1814H431.981V48.1329Z" fill="#FEE3D4"/>
<path d="M438.281 48.1219H432.214V54.1925H438.281V48.1219Z" fill="#FEE3D4"/>
<path d="M444.525 48.1551H438.536V54.1482H444.525V48.1551Z" fill="#FEE3D4"/>
<path d="M450.747 48.2105H444.869V54.0928H450.747V48.2105Z" fill="#FEE3D4"/>
<path d="M456.947 48.2991H451.235V54.0153H456.947V48.2991Z" fill="#FEE3D4"/>
<path d="M463.125 48.3988H457.623V53.9045H463.125V48.3988Z" fill="#FEE3D4"/>
<path d="M469.292 48.5096H464.011V53.7937H469.292V48.5096Z" fill="#FEE3D4"/>
<path d="M475.448 48.6425H470.433V53.6608H475.448V48.6425Z" fill="#FEE3D4"/>
<path d="M481.581 48.7976H476.865V53.5168H481.581V48.7976Z" fill="#FEE3D4"/>
<path d="M487.704 48.9638H483.309V53.3617H487.704V48.9638Z" fill="#FEE3D4"/>
<path d="M499.883 49.3404H496.251V52.974H499.883V49.3404Z" fill="#FEE3D4"/>
<path d="M512.039 49.7503H509.216V52.5751H512.039V49.7503Z" fill="#FEE3D4"/>
<path d="M361.379 55.9206H358.345V58.956H361.379V55.9206Z" fill="#FEE3D4"/>
<path d="M374.333 55.5329H370.513V59.3548H374.333V55.5329Z" fill="#FEE3D4"/>
<path d="M387.231 55.1895H382.736V59.6871H387.231V55.1895Z" fill="#FEE3D4"/>
<path d="M400.074 54.9237H395.036V59.9641H400.074V54.9237Z" fill="#FEE3D4"/>
<path d="M406.473 54.8018H401.192V60.0859H406.473V54.8018Z" fill="#FEE3D4"/>
<path d="M412.85 54.7021H407.381V60.1746H412.85V54.7021Z" fill="#FEE3D4"/>
<path d="M419.216 54.6245H413.581V60.2632H419.216V54.6245Z" fill="#FEE3D4"/>
<path d="M425.549 54.5692H419.803V60.3186H425.549V54.5692Z" fill="#FEE3D4"/>
<path d="M431.86 54.5359H426.058V60.3407H431.86V54.5359Z" fill="#FEE3D4"/>
<path d="M438.148 54.5359H432.347V60.3407H438.148V54.5359Z" fill="#FEE3D4"/>
<path d="M444.404 54.5692H438.658V60.3186H444.404V54.5692Z" fill="#FEE3D4"/>
<path d="M450.648 54.6024H444.979V60.2743H450.648V54.6024Z" fill="#FEE3D4"/>
<path d="M456.837 54.691H451.334V60.1967H456.837V54.691Z" fill="#FEE3D4"/>
<path d="M463.026 54.7796H457.711V60.097H463.026V54.7796Z" fill="#FEE3D4"/>
<path d="M475.348 55.0234H470.521V59.8533H475.348V55.0234Z" fill="#FEE3D4"/>
<path d="M487.615 55.3225H483.386V59.5542H487.615V55.3225Z" fill="#FEE3D4"/>
<path d="M499.816 55.688H496.318V59.1886H499.816V55.688Z" fill="#FEE3D4"/>
<path d="M518.017 56.3306H515.792V58.5572H518.017V56.3306Z" fill="#FEE3D4"/>
<path d="M348.292 62.7335H346.311V64.7165H348.292V62.7335Z" fill="#FEE3D4"/>
<path d="M361.279 62.3015H358.434V65.1485H361.279V62.3015Z" fill="#FEE3D4"/>
<path d="M374.244 61.9138H370.612V65.5473H374.244V61.9138Z" fill="#FEE3D4"/>
<path d="M387.131 61.5814H382.846V65.8686H387.131V61.5814Z" fill="#FEE3D4"/>
<path d="M393.564 61.4374H388.98V66.0237H393.564V61.4374Z" fill="#FEE3D4"/>
<path d="M406.373 61.1937H401.302V66.2674H406.373V61.1937Z" fill="#FEE3D4"/>
<path d="M412.75 61.094H407.491V66.356H412.75V61.094Z" fill="#FEE3D4"/>
<path d="M419.094 61.0275H413.702V66.4225H419.094V61.0275Z" fill="#FEE3D4"/>
<path d="M425.427 60.9722H419.925V66.4778H425.427V60.9722Z" fill="#FEE3D4"/>
<path d="M431.738 60.95H426.18V66.5111H431.738V60.95Z" fill="#FEE3D4"/>
<path d="M438.026 60.95H432.469V66.5111H438.026V60.95Z" fill="#FEE3D4"/>
<path d="M444.282 60.9722H438.779V66.4778H444.282V60.9722Z" fill="#FEE3D4"/>
<path d="M450.504 61.0275H445.112V66.4225H450.504V61.0275Z" fill="#FEE3D4"/>
<path d="M456.726 61.0829H451.445V66.3671H456.726V61.0829Z" fill="#FEE3D4"/>
<path d="M462.915 61.1826H457.822V66.2784H462.915V61.1826Z" fill="#FEE3D4"/>
<path d="M469.093 61.2823H464.21V66.1677H469.093V61.2823Z" fill="#FEE3D4"/>
<path d="M475.26 61.4042H470.621V66.0458H475.26V61.4042Z" fill="#FEE3D4"/>
<path d="M481.393 61.5593H477.053V65.9018H481.393V61.5593Z" fill="#FEE3D4"/>
<path d="M493.627 61.8805H489.94V65.5695H493.627V61.8805Z" fill="#FEE3D4"/>
<path d="M505.795 62.2793H502.894V65.1817H505.795V62.2793Z" fill="#FEE3D4"/>
<path d="M367.656 68.494H364.623V71.5293H367.656V68.494Z" fill="#FEE3D4"/>
<path d="M380.577 68.1395H376.835V71.8838H380.577V68.1395Z" fill="#FEE3D4"/>
<path d="M393.442 67.8404H389.102V72.1829H393.442V67.8404Z" fill="#FEE3D4"/>
<path d="M399.852 67.7075H395.246V72.3159H399.852V67.7075Z" fill="#FEE3D4"/>
<path d="M412.606 67.5192H407.624V72.5042H412.606V67.5192Z" fill="#FEE3D4"/>
<path d="M425.283 67.4084H420.08V72.615H425.283V67.4084Z" fill="#FEE3D4"/>
<path d="M431.594 67.3862H426.335V72.6482H431.594V67.3862Z" fill="#FEE3D4"/>
<path d="M437.882 67.3641H432.601V72.6482H437.882V67.3641Z" fill="#FEE3D4"/>
<path d="M444.138 67.3973H438.912V72.6261H444.138V67.3973Z" fill="#FEE3D4"/>
<path d="M450.382 67.4416H445.234V72.5928H450.382V67.4416Z" fill="#FEE3D4"/>
<path d="M462.782 67.5967H457.955V72.4267H462.782V67.5967Z" fill="#FEE3D4"/>
<path d="M475.138 67.8182H470.742V72.2161H475.138V67.8182Z" fill="#FEE3D4"/>
<path d="M487.405 68.1174H483.608V71.9171H487.405V68.1174Z" fill="#FEE3D4"/>
<path d="M499.617 68.4497H496.506V71.5626H499.617V68.4497Z" fill="#FEE3D4"/>
<path d="M511.773 68.8596H509.47V71.1638H511.773V68.8596Z" fill="#FEE3D4"/>
<path d="M354.603 75.2847H352.566V77.323H354.603V75.2847Z" fill="#FEE3D4"/>
<path d="M374 74.7197H370.856V77.8659H374V74.7197Z" fill="#FEE3D4"/>
<path d="M386.887 74.3985H383.09V78.1982H386.887V74.3985Z" fill="#FEE3D4"/>
<path d="M399.708 74.1437H395.401V78.453H399.708V74.1437Z" fill="#FEE3D4"/>
<path d="M406.096 74.0329H401.568V78.5638H406.096V74.0329Z" fill="#FEE3D4"/>
<path d="M412.451 73.9554H407.768V78.6413H412.451V73.9554Z" fill="#FEE3D4"/>
<path d="M418.795 73.9H414.001V78.6967H418.795V73.9Z" fill="#FEE3D4"/>
<path d="M431.439 73.8114H426.479V78.7743H431.439V73.8114Z" fill="#FEE3D4"/>
<path d="M443.983 73.8446H439.078V78.7521H443.983V73.8446Z" fill="#FEE3D4"/>
<path d="M450.227 73.8889H445.4V78.7189H450.227V73.8889Z" fill="#FEE3D4"/>
<path d="M456.449 73.9332H451.733V78.6524H456.449V73.9332Z" fill="#FEE3D4"/>
<path d="M462.649 74.0219H458.099V78.5748H462.649V74.0219Z" fill="#FEE3D4"/>
<path d="M468.827 74.1326H464.487V78.4751H468.827V74.1326Z" fill="#FEE3D4"/>
<path d="M481.15 74.3763H477.297V78.2314H481.15V74.3763Z" fill="#FEE3D4"/>
<path d="M493.384 74.6976H490.184V77.8991H493.384V74.6976Z" fill="#FEE3D4"/>
<path d="M360.947 81.4994H358.777V83.6707H360.947V81.4994Z" fill="#FEE3D4"/>
<path d="M373.856 81.1449H370.989V84.0141H373.856V81.1449Z" fill="#FEE3D4"/>
<path d="M386.744 80.8347H383.245V84.3353H386.744V80.8347Z" fill="#FEE3D4"/>
<path d="M399.553 80.5799H395.545V84.5901H399.553V80.5799Z" fill="#FEE3D4"/>
<path d="M412.296 80.4027H407.934V84.7674H412.296V80.4027Z" fill="#FEE3D4"/>
<path d="M424.973 80.2919H420.39V84.8781H424.973V80.2919Z" fill="#FEE3D4"/>
<path d="M431.262 80.2808H426.656V84.8892H431.262V80.2808Z" fill="#FEE3D4"/>
<path d="M437.561 80.2697H432.923V84.9114H437.561V80.2697Z" fill="#FEE3D4"/>
<path d="M450.05 80.3362H445.555V84.8338H450.05V80.3362Z" fill="#FEE3D4"/>
<path d="M462.483 80.4691H458.254V84.7009H462.483V80.4691Z" fill="#FEE3D4"/>
<path d="M474.839 80.6796H471.041V84.4793H474.839V80.6796Z" fill="#FEE3D4"/>
<path d="M487.106 80.9677H483.884V84.1913H487.106V80.9677Z" fill="#FEE3D4"/>
<path d="M499.351 81.3H496.771V83.8811H499.351V81.3Z" fill="#FEE3D4"/>
<path d="M511.53 81.6767H509.714V83.4934H511.53V81.6767Z" fill="#FEE3D4"/>
<path d="M380.134 87.426H377.266V90.2952H380.134V87.426Z" fill="#FEE3D4"/>
<path d="M392.977 87.1602H389.567V90.5722H392.977V87.1602Z" fill="#FEE3D4"/>
<path d="M405.764 86.9386H401.911V90.7937H405.764V86.9386Z" fill="#FEE3D4"/>
<path d="M418.452 86.8057H414.334V90.9267H418.452V86.8057Z" fill="#FEE3D4"/>
<path d="M431.085 86.7392H426.833V90.9931H431.085V86.7392Z" fill="#FEE3D4"/>
<path d="M443.64 86.7503H439.41V90.982H443.64V86.7503Z" fill="#FEE3D4"/>
<path d="M456.117 86.85H452.076V90.8934H456.117V86.85Z" fill="#FEE3D4"/>
<path d="M468.495 87.0272H464.808V90.7162H468.495V87.0272Z" fill="#FEE3D4"/>
<path d="M480.817 87.271H477.618V90.4725H480.817V87.271Z" fill="#FEE3D4"/>
<path d="M493.085 87.5701H490.483V90.1734H493.085V87.5701Z" fill="#FEE3D4"/>
<path d="M367.092 94.2057H365.199V96.1H367.092V94.2057Z" fill="#FEE3D4"/>
<path d="M386.4 93.7404H383.577V96.5653H386.4V93.7404Z" fill="#FEE3D4"/>
<path d="M399.21 93.4967H395.9V96.809H399.21V93.4967Z" fill="#FEE3D4"/>
<path d="M411.92 93.3527H408.311V96.9641H411.92V93.3527Z" fill="#FEE3D4"/>
<path d="M424.586 93.2419H420.766V97.0638H424.586V93.2419Z" fill="#FEE3D4"/>
<path d="M437.174 93.2308H433.321V97.0859H437.174V93.2308Z" fill="#FEE3D4"/>
<path d="M449.685 93.2751H445.92V97.0416H449.685V93.2751Z" fill="#FEE3D4"/>
<path d="M462.118 93.4081H458.619V96.9087H462.118V93.4081Z" fill="#FEE3D4"/>
<path d="M474.485 93.5964H471.374V96.7093H474.485V93.5964Z" fill="#FEE3D4"/>
<path d="M486.796 93.8623H484.216V96.4434H486.796V93.8623Z" fill="#FEE3D4"/>
<path d="M499.041 94.1835H497.092V96.1332H499.041V94.1835Z" fill="#FEE3D4"/>
<path d="M392.611 100.099H389.932V102.78H392.611V100.099Z" fill="#FEE3D4"/>
<path d="M405.366 99.9108H402.299V102.979H405.366V99.9108Z" fill="#FEE3D4"/>
<path d="M418.065 99.7667H414.732V103.101H418.065V99.7667Z" fill="#FEE3D4"/>
<path d="M430.697 99.7003H427.232V103.168H430.697V99.7003Z" fill="#FEE3D4"/>
<path d="M443.23 99.7335H439.82V103.146H443.23V99.7335Z" fill="#FEE3D4"/>
<path d="M455.696 99.8222H452.475V103.046H455.696V99.8222Z" fill="#FEE3D4"/>
<path d="M468.107 99.9883H465.207V102.891H468.107V99.9883Z" fill="#FEE3D4"/>
<path d="M480.452 100.21H477.983V102.68H480.452V100.21Z" fill="#FEE3D4"/>
<path d="M379.603 106.834H377.809V108.629H379.603V106.834Z" fill="#FEE3D4"/>
<path d="M411.533 106.314H408.709V109.139H411.533V106.314Z" fill="#FEE3D4"/>
<path d="M424.165 106.236H421.187V109.216H424.165V106.236Z" fill="#FEE3D4"/>
<path d="M436.753 106.225H433.742V109.238H436.753V106.225Z" fill="#FEE3D4"/>
<path d="M449.264 106.269H446.363V109.172H449.264V106.269Z" fill="#FEE3D4"/>
<path d="M461.708 106.38H459.029V109.061H461.708V106.38Z" fill="#FEE3D4"/>
<path d="M392.191 113.093H390.353V114.932H392.191V113.093Z" fill="#FEE3D4"/>
<path d="M430.254 112.728H427.675V115.309H430.254V112.728Z" fill="#FEE3D4"/>
<path d="M442.798 112.739H440.252V115.287H442.798V112.739Z" fill="#FEE3D4"/>
<path d="M467.687 112.972H465.605V115.054H467.687V112.972Z" fill="#FEE3D4"/>
<path d="M480.065 113.171H478.382V114.855H480.065V113.171Z" fill="#FEE3D4"/>
<path d="M404.701 119.43H402.963V121.169H404.701V119.43Z" fill="#FEE3D4"/>
<path d="M417.389 119.308H415.408V121.291H417.389V119.308Z" fill="#FEE3D4"/>
<path d="M448.832 119.275H446.795V121.313H448.832V119.275Z" fill="#FEE3D4"/>
</g>
<g opacity="0.1">
<path d="M-11.6329 -62.9446H-13.5593V-61.0171H-11.6329V-62.9446Z" fill="#FEE3D4"/>
<path d="M0.988571 -63H-1.04857V-60.9617H0.988571V-63Z" fill="#FEE3D4"/>
<path d="M13.5214 -62.9778H11.5396V-60.9949H13.5214V-62.9778Z" fill="#FEE3D4"/>
<path d="M-30.4543 -56.6856H-32.4361V-54.7027H-30.4543V-56.6856Z" fill="#FEE3D4"/>
<path d="M20.0204 -56.9072H17.6068V-54.4922H20.0204V-56.9072Z" fill="#FEE3D4"/>
<path d="M32.4536 -56.7853H30.2836V-54.6141H32.4536V-56.7853Z" fill="#FEE3D4"/>
<path d="M-43.0425 -50.3934H-44.9911V-48.4437H-43.0425V-50.3934Z" fill="#FEE3D4"/>
<path d="M-23.8779 -50.7036H-26.4575V-48.1225H-23.8779V-50.7036Z" fill="#FEE3D4"/>
<path d="M-11.1789 -50.8365H-14.0243V-47.9895H-11.1789V-50.8365Z" fill="#FEE3D4"/>
<path d="M1.4425 -50.8919H-1.51358V-47.9341H1.4425V-50.8919Z" fill="#FEE3D4"/>
<path d="M13.9754 -50.8587H11.0746V-47.9563H13.9754V-50.8587Z" fill="#FEE3D4"/>
<path d="M26.4529 -50.7811H23.7182V-48.0449H26.4529V-50.7811Z" fill="#FEE3D4"/>
<path d="M38.875 -50.6371H36.4393V-48.2H38.875V-50.6371Z" fill="#FEE3D4"/>
<path d="M51.2418 -50.4266H49.2047V-48.3883H51.2418V-50.4266Z" fill="#FEE3D4"/>
<path d="M-36.4329 -44.4335H-39.0346V-41.8302H-36.4329V-44.4335Z" fill="#FEE3D4"/>
<path d="M-23.6564 -44.6329H-26.6679V-41.6198H-23.6564V-44.6329Z" fill="#FEE3D4"/>
<path d="M-10.9686 -44.7659H-14.2457V-41.4868H-10.9686V-44.7659Z" fill="#FEE3D4"/>
<path d="M1.64179 -44.8102H-1.71286V-41.4536H1.64179V-44.8102Z" fill="#FEE3D4"/>
<path d="M14.1968 -44.8102H10.8421V-41.4536H14.1968V-44.8102Z" fill="#FEE3D4"/>
<path d="M26.6743 -44.7105H23.5079V-41.5422H26.6743V-44.7105Z" fill="#FEE3D4"/>
<path d="M57.5857 -44.212H55.4157V-42.0407H57.5857V-44.212Z" fill="#FEE3D4"/>
<path d="M-55.4868 -37.9308H-57.6568V-35.7596H-55.4868V-37.9308Z" fill="#FEE3D4"/>
<path d="M-42.6439 -38.2078H-45.3786V-35.4716H-42.6439V-38.2078Z" fill="#FEE3D4"/>
<path d="M-29.8343 -38.4515H-33.0561V-35.2278H-29.8343V-38.4515Z" fill="#FEE3D4"/>
<path d="M-17.1021 -38.6177H-20.6561V-35.0617H-17.1021V-38.6177Z" fill="#FEE3D4"/>
<path d="M-4.43642 -38.7284H-8.20071V-34.962H-4.43642V-38.7284Z" fill="#FEE3D4"/>
<path d="M8.14071 -38.7395H4.34321V-34.9398H8.14071V-38.7395Z" fill="#FEE3D4"/>
<path d="M20.6625 -38.6952H16.9536V-34.9841H20.6625V-38.6952Z" fill="#FEE3D4"/>
<path d="M33.0736 -38.5512H29.6636V-35.1392H33.0736V-38.5512Z" fill="#FEE3D4"/>
<path d="M45.4514 -38.3629H42.4179V-35.3275H45.4514V-38.3629Z" fill="#FEE3D4"/>
<path d="M63.8964 -37.953H61.6711V-35.7263H63.8964V-37.953Z" fill="#FEE3D4"/>
<path d="M-48.8771 -31.971H-51.7004V-29.1461H-48.8771V-31.971Z" fill="#FEE3D4"/>
<path d="M-36.0564 -32.2368H-39.4111V-28.8802H-36.0564V-32.2368Z" fill="#FEE3D4"/>
<path d="M-23.2689 -32.4584H-27.0664V-28.6587H-23.2689V-32.4584Z" fill="#FEE3D4"/>
<path d="M-10.57 -32.5913H-14.6332V-28.5257H-10.57V-32.5913Z" fill="#FEE3D4"/>
<path d="M2.06249 -32.6578H-2.13358V-28.4593H2.06249V-32.6578Z" fill="#FEE3D4"/>
<path d="M14.5954 -32.6246H10.4546V-28.4814H14.5954V-32.6246Z" fill="#FEE3D4"/>
<path d="M27.0839 -32.547H23.0982V-28.559H27.0839V-32.547Z" fill="#FEE3D4"/>
<path d="M39.4729 -32.3698H35.8414V-28.7362H39.4729V-32.3698Z" fill="#FEE3D4"/>
<path d="M51.7843 -32.126H48.64V-28.9799H51.7843V-32.126Z" fill="#FEE3D4"/>
<path d="M70.1739 -31.6719H67.9486V-29.4452H70.1739V-31.6719Z" fill="#FEE3D4"/>
<path d="M-68.0971 -25.3132H-70.1786V-23.2305H-68.0971V-25.3132Z" fill="#FEE3D4"/>
<path d="M-55.1657 -25.6787H-57.9889V-22.8539H-55.1657V-25.6787Z" fill="#FEE3D4"/>
<path d="M-42.3118 -25.9778H-45.7218V-22.5659H-42.3118V-25.9778Z" fill="#FEE3D4"/>
<path d="M-29.48 -26.2326H-33.4104V-22.3H-29.48V-26.2326Z" fill="#FEE3D4"/>
<path d="M-16.7257 -26.421H-21.0325V-22.1117H-16.7257V-26.421Z" fill="#FEE3D4"/>
<path d="M-4.07108 -26.5207H-8.56608V-22.0231H-4.07108V-26.5207Z" fill="#FEE3D4"/>
<path d="M2.23965 -26.5428H-2.31071V-21.9898H2.23965V-26.5428Z" fill="#FEE3D4"/>
<path d="M8.51715 -26.5428H3.96679V-21.9898H8.51715V-26.5428Z" fill="#FEE3D4"/>
<path d="M14.7946 -26.5317H10.2664V-22.0009H14.7946V-26.5317Z" fill="#FEE3D4"/>
<path d="M21.0278 -26.4985H16.5882V-22.0563H21.0278V-26.4985Z" fill="#FEE3D4"/>
<path d="M33.4611 -26.3545H29.2871V-22.1781H33.4611V-26.3545Z" fill="#FEE3D4"/>
<path d="M45.8057 -26.144H42.0636V-22.3997H45.8057V-26.144Z" fill="#FEE3D4"/>
<path d="M58.095 -25.8671H54.8954V-22.6656H58.095V-25.8671Z" fill="#FEE3D4"/>
<path d="M76.4293 -25.3575H74.2593V-23.1862H76.4293V-25.3575Z" fill="#FEE3D4"/>
<path d="M-55.0218 -19.5416H-58.1329V-16.4287H-55.0218V-19.5416Z" fill="#FEE3D4"/>
<path d="M-42.1346 -19.8518H-45.8768V-16.1075H-42.1346V-19.8518Z" fill="#FEE3D4"/>
<path d="M-29.325 -20.1177H-33.5764V-15.8638H-29.325V-20.1177Z" fill="#FEE3D4"/>
<path d="M-22.9257 -20.2174H-27.3986V-15.7419H-22.9257V-20.2174Z" fill="#FEE3D4"/>
<path d="M-16.5596 -20.306H-21.1986V-15.6644H-16.5596V-20.306Z" fill="#FEE3D4"/>
<path d="M-10.2157 -20.3725H-14.9875V-15.5979H-10.2157V-20.3725Z" fill="#FEE3D4"/>
<path d="M2.41679 -20.4389H-2.48785V-15.5314H2.41679V-20.4389Z" fill="#FEE3D4"/>
<path d="M14.9496 -20.4168H10.1004V-15.5647H14.9496V-20.4168Z" fill="#FEE3D4"/>
<path d="M21.1939 -20.3725H16.4221V-15.5979H21.1939V-20.3725Z" fill="#FEE3D4"/>
<path d="M27.4161 -20.3171H22.755V-15.6533H27.4161V-20.3171Z" fill="#FEE3D4"/>
<path d="M33.6161 -20.2395H29.1211V-15.7419H33.6161V-20.2395Z" fill="#FEE3D4"/>
<path d="M39.7939 -20.1287H35.5093V-15.8416H39.7939V-20.1287Z" fill="#FEE3D4"/>
<path d="M52.1164 -19.885H48.3189V-16.0853H52.1164V-19.885Z" fill="#FEE3D4"/>
<path d="M64.3614 -19.5749H61.195V-16.4066H64.3614V-19.5749Z" fill="#FEE3D4"/>
<path d="M82.6514 -18.9988H80.6143V-16.9605H82.6514V-18.9988Z" fill="#FEE3D4"/>
<path d="M-74.3304 -12.7952H-76.5225V-10.6018H-74.3304V-12.7952Z" fill="#FEE3D4"/>
<path d="M-61.3436 -13.2051H-64.355V-10.1919H-61.3436V-13.2051Z" fill="#FEE3D4"/>
<path d="M-48.4454 -13.5596H-52.1543V-9.8485H-48.4454V-13.5596Z" fill="#FEE3D4"/>
<path d="M-35.5804 -13.8587H-39.8871V-9.5494H-35.5804V-13.8587Z" fill="#FEE3D4"/>
<path d="M-22.7818 -14.0802H-27.5536V-9.30569H-22.7818V-14.0802Z" fill="#FEE3D4"/>
<path d="M-10.0607 -14.2353H-15.1314V-9.16168H-10.0607V-14.2353Z" fill="#FEE3D4"/>
<path d="M-3.75 -14.2796H-8.89822V-9.12844H-3.75V-14.2796Z" fill="#FEE3D4"/>
<path d="M2.56071 -14.3018H-2.64286V-9.09521H2.56071V-14.3018Z" fill="#FEE3D4"/>
<path d="M8.84928 -14.3018H3.64571V-9.09521H8.84928V-14.3018Z" fill="#FEE3D4"/>
<path d="M15.1046 -14.2796H9.95643V-9.12844H15.1046V-14.2796Z" fill="#FEE3D4"/>
<path d="M27.5711 -14.1799H22.6111V-9.21706H27.5711V-14.1799Z" fill="#FEE3D4"/>
<path d="M39.9489 -13.9916H35.3654V-9.40539H39.9489V-13.9916Z" fill="#FEE3D4"/>
<path d="M46.1046 -13.8698H41.7646V-9.52725H46.1046V-13.8698Z" fill="#FEE3D4"/>
<path d="M58.3828 -13.5817H54.6186V-9.81527H58.3828V-13.5817Z" fill="#FEE3D4"/>
<path d="M70.5947 -13.2272H67.5279V-10.1587H70.5947V-13.2272Z" fill="#FEE3D4"/>
<path d="M-67.7207 -6.82425H-70.5439V-3.9994H-67.7207V-6.82425Z" fill="#FEE3D4"/>
<path d="M-54.7893 -7.2009H-58.3654V-3.62276H-54.7893V-7.2009Z" fill="#FEE3D4"/>
<path d="M-41.8911 -7.54432H-46.1425V-3.29042H-41.8911V-7.54432Z" fill="#FEE3D4"/>
<path d="M-35.4586 -7.68832H-40.0089V-3.13533H-35.4586V-7.68832Z" fill="#FEE3D4"/>
<path d="M-29.0482 -7.81018H-33.8421V-3.01347H-29.0482V-7.81018Z" fill="#FEE3D4"/>
<path d="M-22.66 -7.92096H-27.6754V-2.90269H-22.66V-7.92096Z" fill="#FEE3D4"/>
<path d="M-16.2829 -8.02066H-21.4864V-2.81407H-16.2829V-8.02066Z" fill="#FEE3D4"/>
<path d="M-9.93892 -8.08713H-15.2754V-2.7476H-9.93892V-8.08713Z" fill="#FEE3D4"/>
<path d="M-3.595 -8.14252H-9.04214V-2.69222H-3.595V-8.14252Z" fill="#FEE3D4"/>
<path d="M2.71571 -8.16467H-2.78679V-2.65898H2.71571V-8.16467Z" fill="#FEE3D4"/>
<path d="M8.99322 -8.16467H3.49072V-2.65898H8.99322V-8.16467Z" fill="#FEE3D4"/>
<path d="M15.2486 -8.14252H9.80142V-2.69222H15.2486V-8.14252Z" fill="#FEE3D4"/>
<path d="M21.4929 -8.09821H16.1232V-2.72545H21.4929V-8.09821Z" fill="#FEE3D4"/>
<path d="M27.7039 -8.03174H22.4782V-2.80299H27.7039V-8.03174Z" fill="#FEE3D4"/>
<path d="M33.8929 -7.93204H28.8554V-2.89162H33.8929V-7.93204Z" fill="#FEE3D4"/>
<path d="M46.2375 -7.72156H41.6318V-3.11318H46.2375V-7.72156Z" fill="#FEE3D4"/>
<path d="M52.3711 -7.56647H48.0643V-3.25718H52.3711V-7.56647Z" fill="#FEE3D4"/>
<path d="M64.5939 -7.23413H60.9625V-3.6006H64.5939V-7.23413Z" fill="#FEE3D4"/>
<path d="M76.7946 -6.86856H73.894V-3.96616H76.7946V-6.86856Z" fill="#FEE3D4"/>
<path d="M88.94 -6.4476H86.8807V-4.38712H88.94V-6.4476Z" fill="#FEE3D4"/>
<path d="M-80.6411 -0.199703H-82.7779V1.93832H-80.6411V-0.199703Z" fill="#FEE3D4"/>
<path d="M-67.6321 -0.631737H-70.6436V2.38144H-67.6321V-0.631737Z" fill="#FEE3D4"/>
<path d="M-54.6786 -1.03054H-58.4761V2.76916H-54.6786V-1.03054Z" fill="#FEE3D4"/>
<path d="M-41.7693 -1.36288H-46.2421V3.11257H-41.7693V-1.36288Z" fill="#FEE3D4"/>
<path d="M-28.9375 -1.63982H-33.9529V3.37844H-28.9375V-1.63982Z" fill="#FEE3D4"/>
<path d="M-16.1611 -1.8503H-21.6082V3.60001H-16.1611V-1.8503Z" fill="#FEE3D4"/>
<path d="M-9.81715 -1.91677H-15.3971V3.66647H-9.81715V-1.91677Z" fill="#FEE3D4"/>
<path d="M-3.47322 -1.97216H-9.16393V3.72186H-3.47322V-1.97216Z" fill="#FEE3D4"/>
<path d="M2.8375 -2.00539H-2.90857V3.74402H2.8375V-2.00539Z" fill="#FEE3D4"/>
<path d="M9.12607 -2.01647H3.35786V3.75509H9.12607V-2.01647Z" fill="#FEE3D4"/>
<path d="M15.3814 -1.99431H9.66857V3.72186H15.3814V-1.99431Z" fill="#FEE3D4"/>
<path d="M21.6146 -1.93893H16.0014V3.67754H21.6146V-1.93893Z" fill="#FEE3D4"/>
<path d="M27.8257 -1.86138H22.3564V3.61108H27.8257V-1.86138Z" fill="#FEE3D4"/>
<path d="M34.0146 -1.77275H28.7336V3.51138H34.0146V-1.77275Z" fill="#FEE3D4"/>
<path d="M40.1925 -1.66198H35.1218V3.41167H40.1925V-1.66198Z" fill="#FEE3D4"/>
<path d="M52.4818 -1.39611H47.9536V3.13474H52.4818V-1.39611Z" fill="#FEE3D4"/>
<path d="M58.5932 -1.22995H54.3972V2.96856H58.5932V-1.22995Z" fill="#FEE3D4"/>
<path d="M70.7939 -0.864368H67.3286V2.603H70.7939V-0.864368Z" fill="#FEE3D4"/>
<path d="M82.9503 -0.454491H80.2932V2.20419H82.9503V-0.454491Z" fill="#FEE3D4"/>
<path d="M-67.5657 5.58293H-70.71V8.72903H-67.5657V5.58293Z" fill="#FEE3D4"/>
<path d="M-54.6121 5.19521H-58.5425V9.12784H-54.6121V5.19521Z" fill="#FEE3D4"/>
<path d="M-48.1354 5.00689H-52.4421V9.31617H-48.1354V5.00689Z" fill="#FEE3D4"/>
<path d="M-41.6918 4.84072H-46.3307V9.48234H-41.6918V4.84072Z" fill="#FEE3D4"/>
<path d="M-35.2704 4.68563H-40.1971V9.61527H-35.2704V4.68563Z" fill="#FEE3D4"/>
<path d="M-28.8489 4.5527H-34.0525V9.75928H-28.8489V4.5527Z" fill="#FEE3D4"/>
<path d="M-22.4386 4.43084H-27.8857V9.88114H-22.4386V4.43084Z" fill="#FEE3D4"/>
<path d="M-16.0614 4.34222H-21.6968V9.98083H-16.0614V4.34222Z" fill="#FEE3D4"/>
<path d="M-9.69536 4.25359H-15.4968V10.0584H-9.69536V4.25359Z" fill="#FEE3D4"/>
<path d="M-3.35143 4.18713H-9.28571V10.1248H-3.35143V4.18713Z" fill="#FEE3D4"/>
<path d="M2.95928 4.16497H-3.03036V10.1581H2.95928V4.16497Z" fill="#FEE3D4"/>
<path d="M9.24786 4.14282H3.23607V10.1581H9.24786V4.14282Z" fill="#FEE3D4"/>
<path d="M15.4921 4.18713H9.55785V10.1248H15.4921V4.18713Z" fill="#FEE3D4"/>
<path d="M21.7143 4.24252H15.8907V10.0695H21.7143V4.24252Z" fill="#FEE3D4"/>
<path d="M27.9254 4.32007H22.2568V9.99192H27.9254V4.32007Z" fill="#FEE3D4"/>
<path d="M34.1032 4.41976H28.6339V9.89222H34.1032V4.41976Z" fill="#FEE3D4"/>
<path d="M40.2811 4.53054H35.0221V9.79251H40.2811V4.53054Z" fill="#FEE3D4"/>
<path d="M46.4257 4.66348H41.4436V9.64851H46.4257V4.66348Z" fill="#FEE3D4"/>
<path d="M58.6818 4.97366H54.3196V9.33833H58.6818V4.97366Z" fill="#FEE3D4"/>
<path d="M70.8714 5.3503H67.2621V8.96168H70.8714V5.3503Z" fill="#FEE3D4"/>
<path d="M83.0389 5.74911H80.2157V8.57395H83.0389V5.74911Z" fill="#FEE3D4"/>
<path d="M95.14 6.2033H93.2468V8.09761H95.14V6.2033Z" fill="#FEE3D4"/>
<path d="M-87.0182 12.4844H-88.9446V14.412H-87.0182V12.4844Z" fill="#FEE3D4"/>
<path d="M-73.9982 12.0192H-76.8436V14.8662H-73.9982V12.0192Z" fill="#FEE3D4"/>
<path d="M-61.0114 11.5982H-64.6982V15.2871H-61.0114V11.5982Z" fill="#FEE3D4"/>
<path d="M-48.08 11.2326H-52.4975V15.6527H-48.08V11.2326Z" fill="#FEE3D4"/>
<path d="M-35.1929 10.9114H-40.2636V15.985H-35.1929V10.9114Z" fill="#FEE3D4"/>
<path d="M-28.7825 10.7674H-34.1189V16.1069H-28.7825V10.7674Z" fill="#FEE3D4"/>
<path d="M-22.3721 10.6455H-27.9521V16.2287H-22.3721V10.6455Z" fill="#FEE3D4"/>
<path d="M-15.9839 10.5458H-21.7854V16.3506H-15.9839V10.5458Z" fill="#FEE3D4"/>
<path d="M-9.60679 10.4461H-15.5964V16.4392H-9.60679V10.4461Z" fill="#FEE3D4"/>
<path d="M-3.24072 10.3686H-9.39643V16.5278H-3.24072V10.3686Z" fill="#FEE3D4"/>
<path d="M3.08107 10.3243H-3.15215V16.5611H3.08107V10.3243Z" fill="#FEE3D4"/>
<path d="M9.35857 10.3243H3.12535V16.5611H9.35857V10.3243Z" fill="#FEE3D4"/>
<path d="M15.6139 10.3464H9.43607V16.5278H15.6139V10.3464Z" fill="#FEE3D4"/>
<path d="M21.8139 10.435H15.8021V16.4503H21.8139V10.435Z" fill="#FEE3D4"/>
<path d="M28.025 10.5126H22.1682V16.3727H28.025V10.5126Z" fill="#FEE3D4"/>
<path d="M34.1918 10.6234H28.5564V16.262H34.1918V10.6234Z" fill="#FEE3D4"/>
<path d="M40.3475 10.7452H34.9557V16.1401H40.3475V10.7452Z" fill="#FEE3D4"/>
<path d="M46.5032 10.8781H41.3772V16.0072H46.5032V10.8781Z" fill="#FEE3D4"/>
<path d="M52.6147 11.0443H47.8207V15.841H52.6147V11.0443Z" fill="#FEE3D4"/>
<path d="M58.7371 11.2105H54.2643V15.6859H58.7371V11.2105Z" fill="#FEE3D4"/>
<path d="M64.8375 11.3766H60.7189V15.4976H64.8375V11.3766Z" fill="#FEE3D4"/>
<path d="M77.005 11.7755H73.6725V15.1099H77.005V11.7755Z" fill="#FEE3D4"/>
<path d="M-67.4771 18.0566H-70.8096V21.391H-67.4771V18.0566Z" fill="#FEE3D4"/>
<path d="M-54.5014 17.6578H-58.6421V21.8009H-54.5014V17.6578Z" fill="#FEE3D4"/>
<path d="M-48.0468 17.4805H-52.5418V21.9781H-48.0468V17.4805Z" fill="#FEE3D4"/>
<path d="M-41.5921 17.3033H-46.4414V22.1554H-41.5921V17.3033Z" fill="#FEE3D4"/>
<path d="M-35.1596 17.1482H-40.3079V22.2994H-35.1596V17.1482Z" fill="#FEE3D4"/>
<path d="M-28.7271 17.0042H-34.1743V22.4545H-28.7271V17.0042Z" fill="#FEE3D4"/>
<path d="M-22.3168 16.8823H-28.0075V22.5763H-22.3168V16.8823Z" fill="#FEE3D4"/>
<path d="M-15.9175 16.7605H-21.8518V22.6982H-15.9175V16.7605Z" fill="#FEE3D4"/>
<path d="M-9.5182 16.6497H-15.6739V22.809H-9.5182V16.6497Z" fill="#FEE3D4"/>
<path d="M-3.14107 16.5611H-9.485V22.9087H-3.14107V16.5611Z" fill="#FEE3D4"/>
<path d="M3.14751 16.5389H-3.21857V22.9087H3.14751V16.5389Z" fill="#FEE3D4"/>
<path d="M9.425 16.5389H3.05892V22.9087H9.425V16.5389Z" fill="#FEE3D4"/>
<path d="M15.7025 16.5611L9.35857 16.5611L9.35856 22.9087H15.7025V16.5611Z" fill="#FEE3D4"/>
<path d="M21.8914 16.6386H15.7136V22.8201H21.8914V16.6386Z" fill="#FEE3D4"/>
<path d="M28.0804 16.7272H22.0907V22.7204H28.0804V16.7272Z" fill="#FEE3D4"/>
<path d="M34.2471 16.8491H28.5011V22.5985H34.2471V16.8491Z" fill="#FEE3D4"/>
<path d="M40.4028 16.971H34.9004V22.4766H40.4028V16.971Z" fill="#FEE3D4"/>
<path d="M46.5364 17.1261H41.3329V22.3326H46.5364V17.1261Z" fill="#FEE3D4"/>
<path d="M58.7925 17.4362H54.2089V22.0225H58.7925V17.4362Z" fill="#FEE3D4"/>
<path d="M70.9711 17.8129H67.1514V21.6347H70.9711V17.8129Z" fill="#FEE3D4"/>
<path d="M83.1164 18.2338H80.1382V21.2138H83.1164V18.2338Z" fill="#FEE3D4"/>
<path d="M95.2175 18.6991H93.1582V20.7596H95.2175V18.6991Z" fill="#FEE3D4"/>
<path d="M-86.9629 25.0024H-89V27.0407H-86.9629V25.0024Z" fill="#FEE3D4"/>
<path d="M-73.9429 24.5371H-76.8989V27.4949H-73.9429V24.5371Z" fill="#FEE3D4"/>
<path d="M-60.9561 24.1162H-64.7536V27.9159H-60.9561V24.1162Z" fill="#FEE3D4"/>
<path d="M-48.0136 23.7395H-52.5639V28.2925H-48.0136V23.7395Z" fill="#FEE3D4"/>
<path d="M-35.1264 23.4072H-40.33V28.6138H-35.1264V23.4072Z" fill="#FEE3D4"/>
<path d="M-28.6939 23.2632H-34.1964V28.7689H-28.6939V23.2632Z" fill="#FEE3D4"/>
<path d="M-22.2946 23.1413H-28.0407V28.8907H-22.2946V23.1413Z" fill="#FEE3D4"/>
<path d="M-15.8843 23.0195H-21.8739V29.0126H-15.8843V23.0195Z" fill="#FEE3D4"/>
<path d="M-9.485 22.8976H-15.7182V29.1344H-9.485V22.8976Z" fill="#FEE3D4"/>
<path d="M-3.14107 22.8311H-9.50714V29.2009H-3.14107V22.8311Z" fill="#FEE3D4"/>
<path d="M3.14751 22.8311H-3.21857V29.2009H3.14751V22.8311Z" fill="#FEE3D4"/>
<path d="M9.425 22.8311H3.05892V29.2009H9.425V22.8311Z" fill="#FEE3D4"/>
<path d="M15.7025 22.8311H9.33643V29.2009H15.7025V22.8311Z" fill="#FEE3D4"/>
<path d="M21.9579 22.8644H15.6693V29.1566H21.9579V22.8644Z" fill="#FEE3D4"/>
<path d="M28.1136 22.9862H22.0686V29.0347H28.1136V22.9862Z" fill="#FEE3D4"/>
<path d="M34.2693 23.1081H28.4679V28.9129H34.2693V23.1081Z" fill="#FEE3D4"/>
<path d="M40.4361 23.2299H34.8782V28.791H40.4361V23.2299Z" fill="#FEE3D4"/>
<path d="M46.5696 23.385H41.3107V28.647H46.5696V23.385Z" fill="#FEE3D4"/>
<path d="M52.6921 23.529H47.7321V28.4919H52.6921V23.529Z" fill="#FEE3D4"/>
<path d="M58.8036 23.7063H54.1978V28.3147H58.8036V23.7063Z" fill="#FEE3D4"/>
<path d="M64.9039 23.8835H60.6525V28.1374H64.9039V23.8835Z" fill="#FEE3D4"/>
<path d="M77.0714 24.2823H73.6061V27.7497H77.0714V24.2823Z" fill="#FEE3D4"/>
<path d="M89.2057 24.7254H86.6261V27.3066H89.2057V24.7254Z" fill="#FEE3D4"/>
<path d="M-73.9429 30.8183H-76.8989V33.776H-73.9429V30.8183Z" fill="#FEE3D4"/>
<path d="M-60.9561 30.3973H-64.7536V34.197H-60.9561V30.3973Z" fill="#FEE3D4"/>
<path d="M-48.0136 30.0207H-52.5639V34.5737H-48.0136V30.0207Z" fill="#FEE3D4"/>
<path d="M-41.5589 29.8434H-46.4636V34.7509H-41.5589V29.8434Z" fill="#FEE3D4"/>
<path d="M-35.1264 29.6994H-40.33V34.906H-35.1264V29.6994Z" fill="#FEE3D4"/>
<path d="M-28.6939 29.5443H-34.1964V35.05H-28.6939V29.5443Z" fill="#FEE3D4"/>
<path d="M-22.2836 29.4114H-28.0518V35.1829H-22.2836V29.4114Z" fill="#FEE3D4"/>
<path d="M-15.8843 29.2895H-21.8961V35.3048H-15.8843V29.2895Z" fill="#FEE3D4"/>
<path d="M-9.485 29.1787H-15.7182V35.4156H-9.485V29.1787Z" fill="#FEE3D4"/>
<path d="M-3.14107 29.1123H-9.50714V35.482H-3.14107V29.1123Z" fill="#FEE3D4"/>
<path d="M3.14751 29.1123H-3.21857V35.482H3.14751V29.1123Z" fill="#FEE3D4"/>
<path d="M9.425 29.1123H3.05892V35.482H9.425V29.1123Z" fill="#FEE3D4"/>
<path d="M15.7025 29.1123H9.33643V35.482H15.7025V29.1123Z" fill="#FEE3D4"/>
<path d="M21.9579 29.1566H15.6693V35.4488H21.9579V29.1566Z" fill="#FEE3D4"/>
<path d="M28.1246 29.2674H22.0575V35.338H28.1246V29.2674Z" fill="#FEE3D4"/>
<path d="M34.2693 29.4003H28.4679V35.2051H34.2693V29.4003Z" fill="#FEE3D4"/>
<path d="M40.4361 29.5222H34.8782V35.0832H40.4361V29.5222Z" fill="#FEE3D4"/>
<path d="M46.5696 29.6551H41.2886V34.9392H46.5696V29.6551Z" fill="#FEE3D4"/>
<path d="M58.8257 29.9763H54.1868V34.618H58.8257V29.9763Z" fill="#FEE3D4"/>
<path d="M70.9932 30.3752H67.1404V34.2302H70.9932V30.3752Z" fill="#FEE3D4"/>
<path d="M83.1386 30.7961H80.1272V33.8093H83.1386V30.7961Z" fill="#FEE3D4"/>
<path d="M95.2286 31.2503H93.1472V33.3329H95.2286V31.2503Z" fill="#FEE3D4"/>
<path d="M-86.9961 37.5979H-88.9779V39.5808H-86.9961V37.5979Z" fill="#FEE3D4"/>
<path d="M-73.965 37.1326H-76.8657V40.035H-73.965V37.1326Z" fill="#FEE3D4"/>
<path d="M-60.9782 36.7006H-64.7425V40.4671H-60.9782V36.7006Z" fill="#FEE3D4"/>
<path d="M-48.0246 36.324H-52.5529V40.8548H-48.0246V36.324Z" fill="#FEE3D4"/>
<path d="M-35.1596 36.0138H-40.3079V41.165H-35.1596V36.0138Z" fill="#FEE3D4"/>
<path d="M-28.7271 35.8587H-34.1743V41.309H-28.7271V35.8587Z" fill="#FEE3D4"/>
<path d="M-22.3057 35.7258H-28.0186V41.4419H-22.3057V35.7258Z" fill="#FEE3D4"/>
<path d="M-15.9175 35.615H-21.8518V41.5527H-15.9175V35.615Z" fill="#FEE3D4"/>
<path d="M-9.51821 35.4931H-15.6961V41.6745H-9.51821V35.4931Z" fill="#FEE3D4"/>
<path d="M-3.14107 35.4156H-9.485V41.7632H-3.14107V35.4156Z" fill="#FEE3D4"/>
<path d="M3.14751 35.3934H-3.21857V41.7632H3.14751V35.3934Z" fill="#FEE3D4"/>
<path d="M9.425 35.3934H3.05892V41.7632H9.425V35.3934Z" fill="#FEE3D4"/>
<path d="M15.7025 35.3934H9.33643V41.7632H15.7025V35.3934Z" fill="#FEE3D4"/>
<path d="M21.9136 35.482H15.7025L15.7025 41.6856H21.9136V35.482Z" fill="#FEE3D4"/>
<path d="M28.0804 35.5928H22.0907V41.5859H28.0804V35.5928Z" fill="#FEE3D4"/>
<path d="M34.2471 35.7147H28.5011V41.4641H34.2471V35.7147Z" fill="#FEE3D4"/>
<path d="M40.4028 35.8365H34.9004V41.3422H40.4028V35.8365Z" fill="#FEE3D4"/>
<path d="M46.5475 35.9695H41.3218V41.1982H46.5475V35.9695Z" fill="#FEE3D4"/>
<path d="M52.67 36.1356H47.7654V41.0431H52.67V36.1356Z" fill="#FEE3D4"/>
<path d="M58.7925 36.2907H54.2089V40.8769H58.7925V36.2907Z" fill="#FEE3D4"/>
<path d="M64.8929 36.468H60.6636V40.6997H64.8929V36.468Z" fill="#FEE3D4"/>
<path d="M77.0493 36.8778H73.6393V40.2898H77.0493V36.8778Z" fill="#FEE3D4"/>
<path d="M89.1836 37.3099H86.6371V39.8578H89.1836V37.3099Z" fill="#FEE3D4"/>
<path d="M-67.4993 43.2255H-70.7764V46.5045H-67.4993V43.2255Z" fill="#FEE3D4"/>
<path d="M-54.5236 42.8266H-58.62V46.9255H-54.5236V42.8266Z" fill="#FEE3D4"/>
<path d="M-48.08 42.6494H-52.5196V47.0916H-48.08V42.6494Z" fill="#FEE3D4"/>
<path d="M-41.6254 42.4832H-46.3971V47.2578H-41.6254V42.4832Z" fill="#FEE3D4"/>
<path d="M-35.1818 42.3171H-40.2746V47.4129H-35.1818V42.3171Z" fill="#FEE3D4"/>
<path d="M-28.7604 42.1841H-34.13V47.5569H-28.7604V42.1841Z" fill="#FEE3D4"/>
<path d="M-22.3611 42.0623H-27.9743V47.6787H-22.3611V42.0623Z" fill="#FEE3D4"/>
<path d="M-15.9729 41.9515H-21.7964V47.7785H-15.9729V41.9515Z" fill="#FEE3D4"/>
<path d="M-9.59571 41.8629H-15.6075V47.8781H-9.59571V41.8629Z" fill="#FEE3D4"/>
<path d="M-3.22964 41.7743H-9.4075V47.9557H-3.22964V41.7743Z" fill="#FEE3D4"/>
<path d="M3.10322 41.7299H-3.18536V48.0222H3.10322V41.7299Z" fill="#FEE3D4"/>
<path d="M9.39178 41.7299H3.10322V48.0222H9.39178V41.7299Z" fill="#FEE3D4"/>
<path d="M15.625 41.7632L9.425 41.7632V47.9668H15.625V41.7632Z" fill="#FEE3D4"/>
<path d="M21.8361 41.8296H15.7689V47.9003H21.8361V41.8296Z" fill="#FEE3D4"/>
<path d="M28.025 41.9294H22.1461V47.8117H28.025V41.9294Z" fill="#FEE3D4"/>
<path d="M34.2029 42.0401H28.5343V47.712H34.2029V42.0401Z" fill="#FEE3D4"/>
<path d="M40.3475 42.1731H34.9557V47.568H40.3475V42.1731Z" fill="#FEE3D4"/>
<path d="M52.6368 42.4611H47.8096V47.291H52.6368V42.4611Z" fill="#FEE3D4"/>
<path d="M64.8486 42.7934H60.7079V46.9365H64.8486V42.7934Z" fill="#FEE3D4"/>
<path d="M77.0161 43.1922H73.6614V46.5488H77.0161V43.1922Z" fill="#FEE3D4"/>
<path d="M95.2064 43.8569H93.1693V45.8952H95.2064V43.8569Z" fill="#FEE3D4"/>
<path d="M-87.0736 50.2488H-88.8893V52.0656H-87.0736V50.2488Z" fill="#FEE3D4"/>
<path d="M-74.0536 49.7835H-76.7882V52.5198H-74.0536V49.7835Z" fill="#FEE3D4"/>
<path d="M-61.0668 49.3626H-64.6429V52.9407H-61.0668V49.3626Z" fill="#FEE3D4"/>
<path d="M-48.1243 48.9859H-52.4643V53.3285H-48.1243V48.9859Z" fill="#FEE3D4"/>
<path d="M-35.2482 48.6758H-40.2082V53.6386H-35.2482V48.6758Z" fill="#FEE3D4"/>
<path d="M-28.8379 48.5428H-34.0636V53.7716H-28.8379V48.5428Z" fill="#FEE3D4"/>
<path d="M-22.4275 48.421H-27.8968V53.8934H-22.4275V48.421Z" fill="#FEE3D4"/>
<path d="M-16.0504 48.3213H-21.7189V53.9931H-16.0504V48.3213Z" fill="#FEE3D4"/>
<path d="M-9.67321 48.2326H-15.53V54.0928H-9.67321V48.2326Z" fill="#FEE3D4"/>
<path d="M-3.32929 48.1551H-9.31893V54.1482H-3.32929V48.1551Z" fill="#FEE3D4"/>
<path d="M2.98142 48.1329H-3.06358V54.1814H2.98142V48.1329Z" fill="#FEE3D4"/>
<path d="M9.28107 48.1219H3.21393V54.1925H9.28107V48.1219Z" fill="#FEE3D4"/>
<path d="M15.5254 48.1551H9.53571V54.1482H15.5254V48.1551Z" fill="#FEE3D4"/>
<path d="M21.7475 48.2105H15.8686V54.0928H21.7475V48.2105Z" fill="#FEE3D4"/>
<path d="M27.9475 48.2991H22.2346V54.0153H27.9475V48.2991Z" fill="#FEE3D4"/>
<path d="M34.1254 48.3988H28.6228V53.9045H34.1254V48.3988Z" fill="#FEE3D4"/>
<path d="M40.2921 48.5096H35.0111V53.7937H40.2921V48.5096Z" fill="#FEE3D4"/>
<path d="M46.4479 48.6425H41.4325V53.6608H46.4479V48.6425Z" fill="#FEE3D4"/>
<path d="M52.5814 48.7976H47.865V53.5168H52.5814V48.7976Z" fill="#FEE3D4"/>
<path d="M58.7039 48.9638H54.3086V53.3617H58.7039V48.9638Z" fill="#FEE3D4"/>
<path d="M70.8825 49.3404H67.2511V52.974H70.8825V49.3404Z" fill="#FEE3D4"/>
<path d="M83.0389 49.7503H80.2157V52.5751H83.0389V49.7503Z" fill="#FEE3D4"/>
<path d="M-67.6211 55.9206H-70.6546V58.956H-67.6211V55.9206Z" fill="#FEE3D4"/>
<path d="M-54.6675 55.5329H-58.4871V59.3548H-54.6675V55.5329Z" fill="#FEE3D4"/>
<path d="M-41.7693 55.1895H-46.2643V59.6871H-41.7693V55.1895Z" fill="#FEE3D4"/>
<path d="M-28.9264 54.9237H-33.9639V59.9641H-28.9264V54.9237Z" fill="#FEE3D4"/>
<path d="M-22.5271 54.8018H-27.8082V60.0859H-22.5271V54.8018Z" fill="#FEE3D4"/>
<path d="M-16.15 54.7021H-21.6193V60.1746H-16.15V54.7021Z" fill="#FEE3D4"/>
<path d="M-9.78394 54.6245H-15.4193V60.2632H-9.78394V54.6245Z" fill="#FEE3D4"/>
<path d="M-3.45107 54.5692H-9.19714V60.3186H-3.45107V54.5692Z" fill="#FEE3D4"/>
<path d="M2.85965 54.5359H-2.94178V60.3407H2.85965V54.5359Z" fill="#FEE3D4"/>
<path d="M9.14822 54.5359H3.34679V60.3407H9.14822V54.5359Z" fill="#FEE3D4"/>
<path d="M15.4036 54.5692H9.6575V60.3186H15.4036V54.5692Z" fill="#FEE3D4"/>
<path d="M21.6479 54.6024H15.9793V60.2743H21.6479V54.6024Z" fill="#FEE3D4"/>
<path d="M27.8368 54.691H22.3343V60.1967H27.8368V54.691Z" fill="#FEE3D4"/>
<path d="M34.0257 54.7796H28.7114V60.097H34.0257V54.7796Z" fill="#FEE3D4"/>
<path d="M46.3482 55.0234H41.5211V59.8533H46.3482V55.0234Z" fill="#FEE3D4"/>
<path d="M58.6154 55.3225H54.3861V59.5542H58.6154V55.3225Z" fill="#FEE3D4"/>
<path d="M70.8161 55.688H67.3175V59.1886H70.8161V55.688Z" fill="#FEE3D4"/>
<path d="M89.0175 56.3306H86.7921V58.5572H89.0175V56.3306Z" fill="#FEE3D4"/>
<path d="M-80.7075 62.7335H-82.6893V64.7165H-80.7075V62.7335Z" fill="#FEE3D4"/>
<path d="M-67.7207 62.3015H-70.5661V65.1485H-67.7207V62.3015Z" fill="#FEE3D4"/>
<path d="M-54.7561 61.9138H-58.3875V65.5473H-54.7561V61.9138Z" fill="#FEE3D4"/>
<path d="M-41.8689 61.5814H-46.1536V65.8686H-41.8689V61.5814Z" fill="#FEE3D4"/>
<path d="M-35.4364 61.4374H-40.02V66.0237H-35.4364V61.4374Z" fill="#FEE3D4"/>
<path d="M-22.6268 61.1937H-27.6975V66.2674H-22.6268V61.1937Z" fill="#FEE3D4"/>
<path d="M-16.2496 61.094H-21.5086V66.356H-16.2496V61.094Z" fill="#FEE3D4"/>
<path d="M-9.90571 61.0275H-15.2975V66.4225H-9.90571V61.0275Z" fill="#FEE3D4"/>
<path d="M-3.57285 60.9722H-9.07536V66.4778H-3.57285V60.9722Z" fill="#FEE3D4"/>
<path d="M2.73785 60.95H-2.82001V66.5111H2.73785V60.95Z" fill="#FEE3D4"/>
<path d="M9.02643 60.95H3.46857V66.5111H9.02643V60.95Z" fill="#FEE3D4"/>
<path d="M15.2818 60.9722H9.77928V66.4778H15.2818V60.9722Z" fill="#FEE3D4"/>
<path d="M21.5039 61.0275H16.1122V66.4225H21.5039V61.0275Z" fill="#FEE3D4"/>
<path d="M27.7261 61.0829H22.445V66.3671H27.7261V61.0829Z" fill="#FEE3D4"/>
<path d="M33.915 61.1826H28.8221V66.2784H33.915V61.1826Z" fill="#FEE3D4"/>
<path d="M40.0929 61.2823H35.2104V66.1677H40.0929V61.2823Z" fill="#FEE3D4"/>
<path d="M46.2596 61.4042H41.6207V66.0458H46.2596V61.4042Z" fill="#FEE3D4"/>
<path d="M52.3932 61.5593H48.0532V65.9018H52.3932V61.5593Z" fill="#FEE3D4"/>
<path d="M64.6272 61.8805H60.9404V65.5695H64.6272V61.8805Z" fill="#FEE3D4"/>
<path d="M76.7946 62.2793H73.894V65.1817H76.7946V62.2793Z" fill="#FEE3D4"/>
<path d="M-61.3436 68.494H-64.3771V71.5293H-61.3436V68.494Z" fill="#FEE3D4"/>
<path d="M-48.4232 68.1395H-52.1654V71.8838H-48.4232V68.1395Z" fill="#FEE3D4"/>
<path d="M-35.5582 67.8404H-39.8982V72.1829H-35.5582V67.8404Z" fill="#FEE3D4"/>
<path d="M-29.1479 67.7075H-33.7536V72.3159H-29.1479V67.7075Z" fill="#FEE3D4"/>
<path d="M-16.3936 67.5192H-21.3757V72.5042H-16.3936V67.5192Z" fill="#FEE3D4"/>
<path d="M-3.71679 67.4084H-8.92036V72.615H-3.71679V67.4084Z" fill="#FEE3D4"/>
<path d="M2.59393 67.3862H-2.66499V72.6482H2.59393V67.3862Z" fill="#FEE3D4"/>
<path d="M8.8825 67.3641H3.60143V72.6482H8.8825V67.3641Z" fill="#FEE3D4"/>
<path d="M15.1378 67.3973H9.91213V72.6261H15.1378V67.3973Z" fill="#FEE3D4"/>
<path d="M21.3821 67.4416H16.2339V72.5928H21.3821V67.4416Z" fill="#FEE3D4"/>
<path d="M33.7822 67.5967H28.955V72.4267H33.7822V67.5967Z" fill="#FEE3D4"/>
<path d="M46.1378 67.8182H41.7425V72.2161H46.1378V67.8182Z" fill="#FEE3D4"/>
<path d="M58.405 68.1174H54.6075V71.9171H58.405V68.1174Z" fill="#FEE3D4"/>
<path d="M70.6168 68.4497H67.5057V71.5626H70.6168V68.4497Z" fill="#FEE3D4"/>
<path d="M82.7732 68.8596H80.4704V71.1638H82.7732V68.8596Z" fill="#FEE3D4"/>
<path d="M-74.3968 75.2847H-76.4339V77.323H-74.3968V75.2847Z" fill="#FEE3D4"/>
<path d="M-54.9996 74.7197H-58.1439V77.8659H-54.9996V74.7197Z" fill="#FEE3D4"/>
<path d="M-42.1125 74.3985H-45.91V78.1982H-42.1125V74.3985Z" fill="#FEE3D4"/>
<path d="M-29.2918 74.1437H-33.5986V78.453H-29.2918V74.1437Z" fill="#FEE3D4"/>
<path d="M-22.9036 74.0329H-27.4318V78.5638H-22.9036V74.0329Z" fill="#FEE3D4"/>
<path d="M-16.5486 73.9554H-21.2318V78.6413H-16.5486V73.9554Z" fill="#FEE3D4"/>
<path d="M-10.2046 73.9H-14.9986V78.6967H-10.2046V73.9Z" fill="#FEE3D4"/>
<path d="M2.43893 73.8114H-2.52107V78.7743H2.43893V73.8114Z" fill="#FEE3D4"/>
<path d="M14.9828 73.8446H10.0782V78.7521H14.9828V73.8446Z" fill="#FEE3D4"/>
<path d="M21.2271 73.8889H16.4V78.7189H21.2271V73.8889Z" fill="#FEE3D4"/>
<path d="M27.4493 73.9332H22.7328V78.6524H27.4493V73.9332Z" fill="#FEE3D4"/>
<path d="M33.6493 74.0219H29.0989V78.5748H33.6493V74.0219Z" fill="#FEE3D4"/>
<path d="M39.8271 74.1326H35.4872V78.4751H39.8271V74.1326Z" fill="#FEE3D4"/>
<path d="M52.1496 74.3763H48.2968V78.2314H52.1496V74.3763Z" fill="#FEE3D4"/>
<path d="M64.3835 74.6976H61.1839V77.8991H64.3835V74.6976Z" fill="#FEE3D4"/>
<path d="M-68.0529 81.4994H-70.2229V83.6707H-68.0529V81.4994Z" fill="#FEE3D4"/>
<path d="M-55.1436 81.1449H-58.0111V84.0141H-55.1436V81.1449Z" fill="#FEE3D4"/>
<path d="M-42.2564 80.8347H-45.755V84.3353H-42.2564V80.8347Z" fill="#FEE3D4"/>
<path d="M-29.4468 80.5799H-33.4546V84.5901H-29.4468V80.5799Z" fill="#FEE3D4"/>
<path d="M-16.7036 80.4027H-21.0657V84.7674H-16.7036V80.4027Z" fill="#FEE3D4"/>
<path d="M-4.02679 80.2919H-8.61036V84.8781H-4.02679V80.2919Z" fill="#FEE3D4"/>
<path d="M2.26179 80.2808H-2.34393V84.8892H2.26179V80.2808Z" fill="#FEE3D4"/>
<path d="M8.56143 80.2697H3.9225V84.9114H8.56143V80.2697Z" fill="#FEE3D4"/>
<path d="M21.05 80.3362H16.555V84.8338H21.05V80.3362Z" fill="#FEE3D4"/>
<path d="M33.4832 80.4691H29.2539V84.7009H33.4832V80.4691Z" fill="#FEE3D4"/>
<path d="M45.8389 80.6796H42.0414V84.4793H45.8389V80.6796Z" fill="#FEE3D4"/>
<path d="M58.1061 80.9677H54.8843V84.1913H58.1061V80.9677Z" fill="#FEE3D4"/>
<path d="M70.3511 81.3H67.7714V83.8811H70.3511V81.3Z" fill="#FEE3D4"/>
<path d="M82.5296 81.6767H80.7139V83.4934H82.5296V81.6767Z" fill="#FEE3D4"/>
<path d="M-48.8661 87.426H-51.7336V90.2952H-48.8661V87.426Z" fill="#FEE3D4"/>
<path d="M-36.0232 87.1602H-39.4332V90.5722H-36.0232V87.1602Z" fill="#FEE3D4"/>
<path d="M-23.2357 86.9386H-27.0886V90.7937H-23.2357V86.9386Z" fill="#FEE3D4"/>
<path d="M-10.5479 86.8057H-14.6664V90.9267H-10.5479V86.8057Z" fill="#FEE3D4"/>
<path d="M2.08463 86.7392H-2.16679V90.9931H2.08463V86.7392Z" fill="#FEE3D4"/>
<path d="M14.6396 86.7503H10.4104V90.982H14.6396V86.7503Z" fill="#FEE3D4"/>
<path d="M27.1171 86.85H23.0761V90.8934H27.1171V86.85Z" fill="#FEE3D4"/>
<path d="M39.495 87.0272H35.8082V90.7162H39.495V87.0272Z" fill="#FEE3D4"/>
<path d="M51.8175 87.271H48.6179V90.4725H51.8175V87.271Z" fill="#FEE3D4"/>
<path d="M64.0847 87.5701H61.4829V90.1734H64.0847V87.5701Z" fill="#FEE3D4"/>
<path d="M-61.9082 94.2057H-63.8014V96.1H-61.9082V94.2057Z" fill="#FEE3D4"/>
<path d="M-42.5996 93.7404H-45.4229V96.5653H-42.5996V93.7404Z" fill="#FEE3D4"/>
<path d="M-29.79 93.4967H-33.1004V96.809H-29.79V93.4967Z" fill="#FEE3D4"/>
<path d="M-17.08 93.3527H-20.6893V96.9641H-17.08V93.3527Z" fill="#FEE3D4"/>
<path d="M-4.41428 93.2419H-8.23393V97.0638H-4.41428V93.2419Z" fill="#FEE3D4"/>
<path d="M8.17392 93.2308H4.32107V97.0859H8.17392V93.2308Z" fill="#FEE3D4"/>
<path d="M20.6846 93.2751H16.9203V97.0416H20.6846V93.2751Z" fill="#FEE3D4"/>
<path d="M33.1179 93.4081H29.6193V96.9087H33.1179V93.4081Z" fill="#FEE3D4"/>
<path d="M45.4846 93.5964H42.3736V96.7093H45.4846V93.5964Z" fill="#FEE3D4"/>
<path d="M57.7961 93.8623H55.2164V96.4434H57.7961V93.8623Z" fill="#FEE3D4"/>
<path d="M70.0411 94.1835H68.0925V96.1332H70.0411V94.1835Z" fill="#FEE3D4"/>
<path d="M-36.3886 100.099H-39.0679V102.78H-36.3886V100.099Z" fill="#FEE3D4"/>
<path d="M-23.6343 99.9108H-26.7011V102.979H-23.6343V99.9108Z" fill="#FEE3D4"/>
<path d="M-10.9354 99.7667H-14.2679V103.101H-10.9354V99.7667Z" fill="#FEE3D4"/>
<path d="M1.69714 99.7003H-1.76821V103.168H1.69714V99.7003Z" fill="#FEE3D4"/>
<path d="M14.23 99.7335H10.82V103.146H14.23V99.7335Z" fill="#FEE3D4"/>
<path d="M26.6964 99.8222H23.4746V103.046H26.6964V99.8222Z" fill="#FEE3D4"/>
<path d="M39.1075 99.9883H36.2068V102.891H39.1075V99.9883Z" fill="#FEE3D4"/>
<path d="M51.4521 100.21H48.9832V102.68H51.4521V100.21Z" fill="#FEE3D4"/>
<path d="M-49.3975 106.834H-51.1911V108.629H-49.3975V106.834Z" fill="#FEE3D4"/>
<path d="M-17.4675 106.314H-20.2907V109.139H-17.4675V106.314Z" fill="#FEE3D4"/>
<path d="M-4.835 106.236H-7.81321V109.216H-4.835V106.236Z" fill="#FEE3D4"/>
<path d="M7.75321 106.225H4.74178V109.238H7.75321V106.225Z" fill="#FEE3D4"/>
<path d="M20.2639 106.269H17.3632V109.172H20.2639V106.269Z" fill="#FEE3D4"/>
<path d="M32.7082 106.38H30.0289V109.061H32.7082V106.38Z" fill="#FEE3D4"/>
<path d="M-36.8093 113.093H-38.6471V114.932H-36.8093V113.093Z" fill="#FEE3D4"/>
<path d="M1.25428 112.728H-1.32536V115.309H1.25428V112.728Z" fill="#FEE3D4"/>
<path d="M13.7982 112.739H11.2518V115.287H13.7982V112.739Z" fill="#FEE3D4"/>
<path d="M38.6868 112.972H36.6053V115.054H38.6868V112.972Z" fill="#FEE3D4"/>
<path d="M51.0647 113.171H49.3818V114.855H51.0647V113.171Z" fill="#FEE3D4"/>
<path d="M-24.2986 119.43H-26.0368V121.169H-24.2986V119.43Z" fill="#FEE3D4"/>
<path d="M-11.6107 119.308H-13.5925V121.291H-11.6107V119.308Z" fill="#FEE3D4"/>
<path d="M19.8321 119.275H17.795V121.313H19.8321V119.275Z" fill="#FEE3D4"/>
</g>
</svg>
