<svg width="48" height="48" viewBox="0 0 48 48" fill="none" xmlns="http://www.w3.org/2000/svg">
<circle cx="24" cy="24" r="23" fill="#0B0B0B" stroke="url(#paint0_linear_159_259)" stroke-width="2"/>
<path d="M20.4338 11.4208C20.4338 11.1595 20.4338 10.938 20.4338 10.7168C20.4315 10.4495 20.4253 10.1821 20.4245 9.9147C20.4245 9.81883 20.4504 9.73899 20.5726 9.73288C21.1913 9.70156 21.8092 9.65191 22.4283 9.64274C22.7648 9.63777 23.1025 9.69889 23.4394 9.73365C23.5874 9.74893 23.643 9.86275 23.579 10.0152C23.3627 10.5335 23.3581 11.0747 23.409 11.6194C23.4209 11.7485 23.4976 11.8299 23.6495 11.8322C24.0789 11.8394 24.3819 11.6217 24.5581 11.2669C24.7011 10.9808 24.7794 10.6614 24.8746 10.3532C24.9224 10.1977 24.937 10.032 24.9817 9.87498C25.0023 9.81656 25.0449 9.76826 25.1005 9.74014C25.204 9.69353 25.3127 9.65904 25.4243 9.63739C26.0402 9.51783 26.6691 9.47777 27.2954 9.51822C27.4392 9.527 27.5267 9.75695 27.4917 9.94297C27.4173 10.3341 27.3575 10.7279 27.2951 11.1213C27.2873 11.1782 27.2873 11.2359 27.2951 11.2928C27.3305 11.5938 27.3074 11.7432 27.7391 11.7203C27.8078 11.7168 27.8822 11.7585 27.9477 11.7883C28.0575 11.8417 28.1404 11.852 28.1705 11.7042C28.2345 11.3723 28.3285 11.0427 28.3551 10.7077C28.3879 10.297 28.3999 9.88567 28.5822 9.50829C28.6207 9.42693 28.7329 9.33525 28.8185 9.32762C29.3786 9.27567 29.941 9.2432 30.5027 9.20921C31.0285 9.17712 30.9869 9.26497 31.1264 9.6901C31.3384 10.3364 31.2382 11.0087 31.1773 11.6721C31.1679 11.7609 31.1642 11.8502 31.1661 11.9395C31.2006 12.9433 31.2363 13.9471 31.2733 14.9509C31.3068 15.8398 31.3504 16.7286 31.3766 17.6178C31.4101 18.8126 31.4375 20.0082 31.4514 21.2034C31.4583 21.8073 31.436 22.4119 31.4128 23.0158C31.3997 23.3836 31.3508 23.7503 31.3427 24.1182C31.3388 24.2962 31.2656 24.3282 31.1114 24.3248C30.7259 24.3156 30.3404 24.316 29.9549 24.3172C28.1046 24.3221 26.2519 24.2652 24.4039 24.3512C22.182 24.4547 19.9623 24.4062 17.7419 24.4153C17.3722 24.4153 17.0029 24.355 16.6333 24.3283C16.5041 24.3191 16.501 24.2415 16.5014 24.1449C16.5014 23.6166 16.4995 23.0884 16.4995 22.5601C16.4995 18.3783 16.5005 14.1966 16.5026 10.0148C16.5026 9.86199 16.5068 9.7092 16.5007 9.55641C16.4945 9.40363 16.5573 9.34595 16.7119 9.29973C17.3742 9.1034 18.0457 9.19775 18.7164 9.20309C18.8741 9.20309 18.9338 9.27949 18.9338 9.42731C18.9338 9.98116 18.9338 10.535 18.9338 11.0881C18.9338 11.3711 18.9628 11.4128 19.2488 11.4193C19.6393 11.4273 20.0236 11.4208 20.4338 11.4208ZM17.0878 23.3699C17.2805 23.402 17.5037 23.4677 17.7269 23.4707C18.5981 23.4814 19.4689 23.4975 20.3386 23.3859C20.7688 23.3309 21.2109 23.3687 21.6492 23.3634C21.8693 23.3611 21.8921 23.3309 21.842 23.1205C21.8361 23.0954 21.8331 23.0698 21.8331 23.0441C21.8308 22.3974 21.7614 21.7511 21.8952 21.1056C22.0089 20.559 22.1843 20.0498 22.5524 19.6159C22.8295 19.2808 23.2196 19.0563 23.6507 18.9838C23.9814 18.9288 24.3307 18.9578 24.6687 18.9838C24.8102 18.9948 24.9891 19.0621 25.0743 19.166C25.4409 19.6109 25.5754 20.1541 25.6267 20.7118C25.6791 21.2866 25.6957 21.8649 25.7292 22.4417C25.7337 22.6007 25.7466 22.7593 25.7678 22.9169C25.7766 22.9704 25.8375 23.0475 25.8861 23.0571C26.1049 23.1014 26.3262 23.133 26.5488 23.1518C26.9759 23.1862 27.4038 23.2221 27.832 23.2305C28.6215 23.2465 29.4125 23.2465 30.2012 23.2408C30.2641 23.2408 30.3658 23.1529 30.382 23.088C30.437 22.8863 30.4699 22.6794 30.4799 22.4707C30.5328 20.7546 30.557 19.0388 30.4283 17.3237C30.3705 16.5701 30.3319 15.8142 30.3234 15.059C30.315 14.2848 30.3504 13.5102 30.3743 12.7359C30.3797 12.4755 30.4008 12.2157 30.4375 11.9578C30.4761 11.6985 30.5702 11.4472 30.6014 11.1874C30.6326 10.9277 30.6118 10.6668 30.6203 10.4063C30.6287 10.1595 30.5308 9.94793 30.3739 9.77452C30.3042 9.69812 30.1592 9.61524 30.0729 9.63625C29.8354 9.69392 29.5891 9.7707 29.3863 9.90133C28.9419 10.1874 28.7695 10.6515 28.7075 11.1462C28.6743 11.4017 28.7167 11.666 28.7171 11.9265C28.7171 11.996 28.7102 12.1045 28.6685 12.1274C28.5599 12.1898 28.4386 12.2274 28.3135 12.2374C27.9866 12.2527 27.6582 12.2374 27.3313 12.2462C27.1339 12.2504 26.9778 12.1572 26.8348 12.0484C26.7731 12.0014 26.7145 11.8994 26.7191 11.8261C26.7396 11.4533 26.7797 11.0816 26.8151 10.7096C26.839 10.4586 26.8718 10.2081 26.8876 9.95672C26.8899 9.91852 26.8263 9.83983 26.7881 9.8364C26.6748 9.82647 26.5453 9.81424 26.4458 9.85702C26.1066 10.0029 25.7778 10.1741 25.4436 10.3322C25.2743 10.412 25.2339 10.5583 25.2304 10.7218C25.2277 10.8364 25.2427 10.9537 25.242 11.0694C25.242 11.3582 25.2535 11.6485 25.2258 11.9349C25.1945 12.252 25.1776 12.2539 24.8518 12.2344C24.6942 12.2252 24.5342 12.1691 24.3812 12.1859C23.954 12.2336 23.5312 12.3188 23.104 12.3688C22.8045 12.404 22.7517 12.3574 22.7694 12.0633C22.7968 11.6213 22.8577 11.1813 22.8909 10.7398C22.8988 10.5564 22.8937 10.3727 22.8755 10.1901C22.8677 10.0805 22.7918 10.0683 22.6935 10.0862C22.1795 10.1872 21.6503 10.1857 21.1369 10.0816C21.0378 10.0606 20.9715 10.0789 20.9604 10.1912C20.9326 10.4697 20.8991 10.7478 20.879 11.0266C20.8624 11.2558 20.8717 11.485 20.8516 11.7141C20.8235 12.0316 20.6994 12.1343 20.3844 12.1259C20.1512 12.1206 19.9172 12.1236 19.684 12.1103C19.3583 12.0919 19.0333 12.0617 18.708 12.0365C18.4138 12.014 18.4138 12.0144 18.4138 11.7206C18.4138 11.1225 18.4138 10.5243 18.4138 9.9254C18.4138 9.79209 18.4138 9.61982 18.2299 9.62822C17.9273 9.6435 17.6186 9.67139 17.3275 9.74931C17.0546 9.82226 17.0349 9.8872 17.0577 10.1859C17.08 10.4941 17.1471 10.8005 17.151 11.1083C17.1729 12.7363 17.2281 14.3646 17.0831 15.991C17.0245 16.6404 16.9898 17.2955 16.9775 17.9482C16.9563 19.0426 16.9447 20.1373 16.9625 21.2332C16.9698 21.9322 17.0415 22.6281 17.0885 23.3699H17.0878ZM23.377 19.538C23.3484 19.7786 23.3157 20.0464 23.2845 20.3142C23.2771 20.3772 23.2767 20.441 23.269 20.5051C23.2154 20.9379 23.1283 21.3695 23.1148 21.8038C23.104 22.1858 23.1688 22.5727 23.2174 22.9551C23.2305 23.0578 23.2945 23.2244 23.3585 23.2366C23.5127 23.2656 23.6811 23.2286 23.8399 23.1984C23.8785 23.1908 23.9255 23.1063 23.9301 23.054C23.9629 22.6824 24.0072 22.3096 24.0072 21.9375C24.0034 21.266 23.9741 20.5945 23.9471 19.9234C23.9282 19.4509 23.9136 19.4444 23.4329 19.5074C23.4134 19.5161 23.3947 19.5263 23.377 19.538ZM24.3792 19.8206C24.338 20.0277 24.2771 20.1977 24.2748 20.3684C24.2632 21.2469 24.2651 22.1228 24.2667 23.0001C24.2667 23.1464 24.3522 23.2354 24.5034 23.2419C24.6444 23.2484 24.7855 23.2419 24.9274 23.2458C25.0608 23.2496 25.1174 23.1908 25.0986 23.0605C25.0666 22.8416 25.0137 22.6235 25.006 22.4039C24.9825 21.7641 24.9791 21.1247 24.7944 20.5021C24.7185 20.2519 24.6132 20.0288 24.3785 19.8206H24.3792ZM22.7216 20.2064L22.6603 20.2175C22.6195 20.4494 22.5952 20.6854 22.5347 20.9123C22.4013 21.4112 22.3207 21.9165 22.3342 22.4318C22.3413 22.6196 22.3804 22.805 22.4499 22.9799C22.4776 23.051 22.6133 23.1052 22.7058 23.1147C22.7467 23.1189 22.84 22.9963 22.8435 22.928C22.8654 22.4944 22.8666 22.0597 22.8797 21.6258C22.8835 21.499 22.8797 21.3627 22.9225 21.2481C23.0451 20.9329 22.8612 20.6507 22.8454 20.352C22.8435 20.3015 22.7656 20.2549 22.7224 20.2064H22.7216Z" fill="white"/>
<path d="M14.739 32.6257C14.9151 32.5814 15.0578 32.5295 15.2043 32.5111C15.6225 32.4596 16.0423 32.4225 16.4613 32.379C16.5121 32.3758 16.5623 32.3667 16.6109 32.3519C16.8198 32.2755 16.9039 32.3278 16.9162 32.5566C16.9351 32.9187 16.942 33.2823 16.9613 33.6433C16.9711 33.7694 16.9891 33.8947 17.0153 34.0184C17.0461 34.1834 16.9686 34.2858 16.7979 34.2858C16.2906 34.2888 15.7833 34.2896 15.276 34.2923C15.0312 34.2923 15.0246 34.3003 15.0258 34.5363C15.0307 35.8669 15.0361 37.197 15.042 38.5268C15.042 38.6089 15.042 38.691 15.042 38.7903C14.9712 38.8039 14.8996 38.8128 14.8276 38.817C14.3334 38.8121 13.8389 38.8033 13.3447 38.796C13.0937 38.7926 13.0509 38.7494 13.0455 38.4905C13.0263 37.5424 13.0101 36.5944 12.9866 35.6467C12.9629 34.675 12.9355 33.7035 12.9044 32.7323C12.8669 31.5446 12.8268 30.3571 12.7842 29.1697C12.7645 28.6242 12.7337 28.0788 12.7094 27.5333C12.6971 27.2633 12.7055 27.266 12.9761 27.248C13.5451 27.2133 14.1133 27.1716 14.6815 27.1281C15.0578 27.0994 15.4336 27.0616 15.8099 27.0322C16.3199 26.994 16.8302 26.9608 17.3402 26.9176C17.5619 26.8993 17.7824 26.8638 18.0033 26.837C18.1382 26.8206 18.203 26.866 18.196 27.0154C18.1633 27.6624 18.137 28.3095 18.1116 28.9566C18.1066 29.086 18.0492 29.1372 17.9189 29.1304C17.0677 29.086 16.2166 29.0463 15.3658 29.0005C15.1345 28.9879 14.9082 28.9581 14.6796 28.9378C14.5593 28.9271 14.4957 28.9799 14.5065 29.1032C14.5324 29.4061 14.5613 29.7086 14.5863 30.0115C14.5956 30.1261 14.599 30.2407 14.6014 30.3553C14.6106 30.8519 14.6091 31.3484 14.6314 31.845C14.6426 32.0917 14.6973 32.3347 14.739 32.6257Z" fill="white"/>
<path d="M35.2943 26.8038C35.2604 27.62 35.2291 28.3653 35.1975 29.1208C34.9639 29.1208 34.7793 29.1284 34.5958 29.1208C33.9495 29.089 33.3034 29.054 32.6576 29.0158C32.3765 28.9989 32.0971 28.9619 31.8164 28.9466C31.6306 28.9363 31.5909 29.0054 31.6198 29.1857C31.638 29.3371 31.6473 29.4894 31.6476 29.6418C31.6661 30.1124 31.68 30.583 31.7012 31.0551C31.7212 31.4921 31.7497 31.929 31.7725 32.366C31.7837 32.5849 31.8719 32.6429 32.0809 32.5887C32.2459 32.5459 32.4166 32.5237 32.5859 32.497C32.9679 32.437 33.3514 32.3824 33.7327 32.3194C33.8626 32.2972 33.9767 32.3576 33.9933 32.4951C34.0025 32.5715 33.9979 32.6479 34.0025 32.7243C34.0303 33.1739 34.0561 33.6234 34.0896 34.0726C34.102 34.2384 34.0415 34.2953 33.8711 34.2926C33.3638 34.285 32.8561 34.2926 32.3488 34.2926C32.1306 34.2926 32.0836 34.3358 32.0859 34.5455C32.0982 35.6276 32.1098 36.7093 32.1275 37.7922C32.1318 38.0577 32.1545 38.3232 32.1769 38.5882C32.1923 38.7712 32.0948 38.8251 31.9344 38.8228C31.414 38.8148 30.8936 38.8037 30.3736 38.801C30.2394 38.801 30.1808 38.7628 30.1781 38.6192C30.1419 37.2334 30.1013 35.8476 30.0563 34.4619C30.0201 33.3058 29.9815 32.1495 29.9407 30.9932C29.9054 29.9833 29.8686 28.9734 29.83 27.9634C29.8222 27.8158 29.8051 27.6689 29.7787 27.5234C29.7448 27.3179 29.7872 27.2679 30.0046 27.256C30.5926 27.2178 31.1804 27.1771 31.7679 27.1338C32.1757 27.1036 32.5832 27.0639 32.991 27.0326C33.4443 26.9982 33.8984 26.9753 34.3506 26.9336C34.6451 26.9031 34.9389 26.8523 35.2943 26.8038Z" fill="white"/>
<path d="M27.9566 34.065C27.8586 34.0715 27.7777 34.0826 27.6967 34.0822C27.1312 34.0791 26.5661 34.0791 26.0006 34.0673C25.819 34.0631 25.74 34.1093 25.7338 34.3083C25.7134 34.9576 25.6706 35.6024 25.6413 36.2498C25.6301 36.497 25.6448 36.5069 25.8992 36.5019C26.4516 36.4912 27.004 36.4847 27.5568 36.4637C27.9141 36.4508 28.2707 36.4202 28.6273 36.3904C28.7761 36.3778 28.8262 36.4446 28.8143 36.5779C28.7734 37.0325 28.731 37.4866 28.6905 37.9408C28.679 38.0703 28.5849 38.0634 28.4935 38.0627C27.864 38.0596 27.2341 38.0665 26.6046 38.0508C25.7951 38.031 24.9883 37.9889 24.1799 37.9656C24.0149 37.9611 24.0134 37.8679 24.0107 37.754C23.985 36.6547 23.958 35.5555 23.9298 34.4565C23.9161 33.9029 23.9033 33.3494 23.8912 32.7961C23.8627 31.3851 23.8372 29.9745 23.806 28.5635C23.8014 28.3614 23.7702 28.1601 23.7536 27.9585C23.7432 27.8339 23.8002 27.7744 23.9294 27.7621C24.2081 27.7354 24.4868 27.7033 24.7639 27.6636C25.3869 27.5738 26.0087 27.4726 26.6324 27.3863C27.0113 27.3336 27.3926 27.298 27.7731 27.253C27.8929 27.2388 28.0124 27.2213 28.1316 27.2022C28.2719 27.18 28.3629 27.2297 28.3586 27.3771C28.3366 27.897 28.3073 28.4164 28.2792 28.9359C28.2703 29.0994 28.1562 29.1212 28.0217 29.1208C27.3342 29.119 26.6471 29.119 25.9601 29.1208C25.6633 29.1208 25.6537 29.1284 25.6517 29.4164C25.6494 30.2947 25.6481 31.1732 25.6479 32.052C25.6479 32.3068 25.6617 32.3194 25.9254 32.3102C26.2273 32.3003 26.5291 32.2972 26.8302 32.2758C27.1023 32.2568 27.3737 32.2186 27.6451 32.1849C27.7993 32.1662 27.8586 32.2231 27.866 32.3813C27.8864 32.8435 27.9246 33.3045 27.9531 33.7659C27.9616 33.8587 27.9566 33.9538 27.9566 34.065Z" fill="white"/>
<path d="M20.2252 30.1277C20.2252 29.6433 20.2252 29.2682 20.2252 28.8928C20.2252 28.7045 20.1616 28.6384 19.9704 28.6475C19.7603 28.6575 19.5506 28.68 19.3409 28.7006C19.2087 28.714 19.152 28.6594 19.154 28.5284C19.1609 28.1082 19.164 27.688 19.1686 27.2679C19.1705 27.1082 19.2696 27.0608 19.4099 27.0677C19.7742 27.0857 20.1385 27.1124 20.5028 27.1231C20.9137 27.1353 21.3246 27.1342 21.7363 27.138C21.9996 27.1407 22.2629 27.1464 22.5262 27.1418C22.6738 27.1395 22.7359 27.2041 22.7398 27.3454C22.7486 27.6823 22.7571 28.0192 22.7741 28.3561C22.781 28.4932 22.7174 28.528 22.5929 28.536C22.3708 28.5498 22.15 28.5849 21.9279 28.5994C21.766 28.6101 21.7926 28.7174 21.7934 28.8179C21.8065 30.5676 21.8193 32.3172 21.8319 34.0669C21.835 34.4741 21.8319 34.8816 21.842 35.2892C21.8473 35.5086 21.8662 35.7275 21.8986 35.9447C21.9063 35.9939 21.9923 36.0611 22.0482 36.0676C22.2066 36.0852 22.3697 36.0654 22.5281 36.0829C22.5817 36.0887 22.6638 36.1563 22.6711 36.2048C22.7193 36.5302 22.7517 36.8583 22.7868 37.1857C22.7972 37.2812 22.7679 37.3415 22.6553 37.3518C22.4657 37.369 22.2779 37.4076 22.0879 37.4213C21.4434 37.4687 20.7977 37.5058 20.1531 37.5546C19.9311 37.5714 19.7114 37.6142 19.4901 37.6421C19.3498 37.6593 19.2866 37.5833 19.2858 37.4538C19.2819 37.0401 19.2777 36.6265 19.2858 36.2132C19.2858 36.1666 19.3652 36.0925 19.418 36.0818C19.5229 36.0611 19.635 36.0753 19.7441 36.0757C19.9754 36.0757 19.9978 36.0554 20.0051 35.8289C20.0491 34.4313 20.0888 33.0333 20.1381 31.6361C20.1605 31.0967 20.2025 30.5585 20.2252 30.1277Z" fill="white"/>
<path d="M19.605 17.3936C19.4253 17.3936 19.2457 17.3936 19.0653 17.3936C18.7523 17.3917 18.7399 17.3783 18.6386 17.08C18.5345 16.7745 18.4844 16.4601 18.5437 16.1438C18.6347 15.6591 18.8907 15.2775 19.3587 15.0793C19.5291 15.0148 19.7088 14.9776 19.891 14.9689C20.315 14.9357 20.6234 15.3077 20.7545 15.6564C20.923 16.1095 20.8266 16.5732 20.8447 17.0315C20.8478 17.1129 20.7372 17.2416 20.652 17.2745C20.4627 17.34 20.2663 17.3835 20.0668 17.4039C19.9153 17.4234 19.7584 17.4078 19.6042 17.4078L19.605 17.3936ZM20.1316 16.2175C20.1316 16.0713 20.1181 15.9234 20.1354 15.7794C20.1528 15.6354 20.061 15.5728 19.972 15.5121C19.8748 15.4467 19.7534 15.4173 19.6539 15.3543C19.4789 15.2431 19.3278 15.3054 19.2923 15.5629C19.2781 15.6637 19.3004 15.7806 19.2561 15.8635C19.117 16.1232 19.1663 16.3952 19.1663 16.6656C19.1663 16.7993 19.2303 16.8631 19.3675 16.8608C19.5664 16.8577 19.7657 16.8554 19.9643 16.8608C20.0915 16.8654 20.1354 16.8096 20.1327 16.6916C20.1292 16.5357 20.1319 16.3764 20.1316 16.2175Z" fill="white"/>
<path d="M29.125 16.012C29.1469 16.3593 29.0004 16.6996 28.8366 17.035C28.7445 17.2259 28.5984 17.1728 28.445 17.1534C28.3128 17.1372 28.1793 17.1355 28.0468 17.1484C27.7958 17.1717 27.5414 17.2443 27.317 17.0621C27.2785 17.0315 27.2295 16.9903 27.2253 16.9502C27.1798 16.514 27.0507 16.0907 27.1829 15.6347C27.2661 15.3474 27.3371 15.0732 27.5298 14.8402C27.6424 14.7053 28.0267 14.6049 28.189 14.6228C28.507 14.6576 28.7048 14.8551 28.8829 15.0774C29.0475 15.2791 29.1284 15.6316 29.125 16.012ZM28.1435 16.5636V16.5663C28.1693 16.5663 28.1948 16.5663 28.2206 16.5663C28.6211 16.5487 28.6597 16.6656 28.5895 16.1484C28.5487 15.8467 28.4785 15.5373 28.3459 15.2661C28.2919 15.1564 28.0375 15.1435 27.8717 15.0927C27.8521 15.1289 27.8371 15.1674 27.827 15.2072C27.7715 15.4597 27.7283 15.7153 27.6636 15.9654C27.5479 16.42 27.6451 16.5602 28.105 16.564L28.1435 16.5636Z" fill="white"/>
<defs>
<linearGradient id="paint0_linear_159_259" x1="48" y1="48" x2="-4.83625" y2="6.09831" gradientUnits="userSpaceOnUse">
<stop stop-color="#E1C18F"/>
<stop offset="1" stop-color="#F9F3E9"/>
</linearGradient>
</defs>
</svg>
